<?xml version="1.0" encoding="utf-8"?>
<!-- Generator: Adobe Illustrator 23.1.0, SVG Export Plug-In . SVG Version: 6.00 Build 0)  -->
<svg version="1.1" id="Layer_1" xmlns="http://www.w3.org/2000/svg" xmlns:xlink="http://www.w3.org/1999/xlink" x="0px" y="0px"
	 viewBox="0 0 842.55 413.62" style="enable-background:new 0 0 842.55 413.62;" xml:space="preserve">
<style type="text/css">
	.st0{fill:#8D0303;}
	.st1{fill:#D40000;}
	.st2{fill:#2E2D2D;}
	.st3{fill:#D2D2D2;}
	.st4{fill:none;}
	.st5{clip-path:url(#SVGID_2_);}
	.st6{clip-path:url(#SVGID_4_);}
	.st7{clip-path:url(#SVGID_4_);fill:#2E2D2D;}
	.st8{clip-path:url(#SVGID_4_);fill:#8D0303;}
	.st9{clip-path:url(#SVGID_4_);fill:#D40000;}
</style>
<g>
	<path class="st0" d="M297.69,367.26h-47.58l-7.87,22.76h-25.16l42.96-119.64h27.9l42.96,119.64h-25.33L297.69,367.26z
		 M273.9,298.11l-17.29,49.98h34.57L273.9,298.11z"/>
</g>
<g>
	<path class="st1" d="M437.82,270.38v119.64h-23.96l-54.26-81.98v81.98h-23.96V270.38h23.96l54.26,82.16v-82.16H437.82z"/>
</g>
<g>
	<path class="st0" d="M500.46,391.22c-24.82,0-43.99-13.01-44.33-35.6h25.67c0.68,9.58,7.02,15.92,18.14,15.92
		c11.3,0,17.97-5.99,17.97-14.55c0-25.84-61.62-10.27-61.45-53.57c0-21.57,17.46-34.57,42.1-34.57c24.48,0,41.25,12.49,42.79,34.06
		H515c-0.51-7.87-6.85-14.04-17.12-14.21c-9.41-0.34-16.43,4.28-16.43,14.04c0,23.96,61.27,10.61,61.27,52.72
		C542.73,374.28,527.67,391.22,500.46,391.22z"/>
</g>
<g>
	<path class="st1" d="M632.04,367.26h-47.58l-7.87,22.76h-25.16l42.96-119.64h27.9l42.96,119.64h-25.33L632.04,367.26z
		 M608.25,298.11l-17.29,49.98h34.57L608.25,298.11z"/>
</g>
<g>
	<path class="st0" d="M714.83,270.56c28.75,0,43.13,16.6,43.13,36.63c0,14.55-8.04,29.27-27.21,34.4l28.58,48.44H731.6l-26.36-46.55
		h-11.3v46.55h-23.96V270.56H714.83z M713.98,290.41h-20.03v35.09h20.03c13.35,0,19.34-7.02,19.34-17.8
		C733.32,297.09,727.33,290.41,713.98,290.41z"/>
</g>
<g>
	<path class="st1" d="M780.03,270.56H804v119.47h-23.96V270.56z"/>
</g>
<path class="st1" d="M189.66,220.29c33.28-9.54,60.18-52.15,60.1-95.16c-0.08-43.01-27.11-70.16-60.4-60.62
	c-33.27,9.54-60.18,52.15-60.1,95.16C129.35,202.68,156.39,229.83,189.66,220.29 M189.29,26.92c51.64-14.8,93.59,28.65,93.72,97.03
	c0.07,38.07-12.83,75.84-33.2,104.42L234.6,268.5l-45.89,121.12l-46.31-94.69l-18.06-36.91c-12.46-12.55-21.56-30.62-25.73-52.63
	l-0.94-5.6c-1.05-7.06-1.61-14.48-1.62-22.25C95.93,109.16,137.67,41.72,189.29,26.92z"/>
<path class="st2" d="M189.63,201.57c25.28-7.25,45.72-39.61,45.66-72.3c-0.06-32.69-20.61-53.3-45.89-46.06
	c-25.28,7.25-45.72,39.62-45.66,72.3C143.8,188.2,164.35,208.82,189.63,201.57 M189.37,64.5c33.28-9.54,60.32,17.61,60.4,60.62
	c0.08,43.01-26.82,85.62-60.1,95.16c-33.27,9.54-60.32-17.61-60.4-60.62C129.18,116.65,156.09,74.04,189.37,64.5z"/>
<path class="st3" d="M189.4,83.22c25.28-7.25,45.82,13.37,45.89,46.06c0.06,32.69-20.38,65.05-45.66,72.3
	c-25.28,7.25-45.82-13.37-45.89-46.06C143.68,122.83,164.12,90.46,189.4,83.22z"/>
<path class="st0" d="M195.06,15.88c-1.44-0.48-2.9-0.9-4.38-1.28c-0.49-0.12-0.98-0.21-1.47-0.32c-0.85-0.19-1.7-0.41-2.56-0.56
	c-0.14-0.03-0.29-0.04-0.44-0.06c-0.73-0.13-1.48-0.22-2.23-0.32c-0.84-0.12-1.68-0.24-2.53-0.32c-0.76-0.07-1.53-0.11-2.29-0.15
	c-0.67-0.04-1.33-0.11-2-0.13c-0.27-0.01-0.53,0-0.8-0.01c-0.24,0-0.48,0-0.73-0.01c-1.46-0.01-2.92,0.03-4.4,0.12
	c-0.21,0.01-0.41,0.03-0.62,0.05c-1.48,0.1-2.96,0.24-4.46,0.44c-0.06,0.01-0.12,0.02-0.18,0.03c-0.1,0.01-0.2,0.03-0.3,0.05
	c-1.64,0.23-3.29,0.52-4.95,0.87c-0.06,0.01-0.11,0.03-0.17,0.04c-1.71,0.37-3.43,0.79-5.16,1.29c-1.23,0.35-2.45,0.73-3.66,1.14
	c-0.24,0.08-0.47,0.17-0.71,0.26c-0.37,0.13-0.75,0.27-1.12,0.4c-1.14,0.41-2.27,0.85-3.39,1.31c-0.32,0.13-0.65,0.26-0.97,0.4
	c-1.39,0.59-2.76,1.22-4.13,1.88c-0.29,0.14-0.58,0.29-0.86,0.44c-1.12,0.56-2.24,1.14-3.34,1.75c-0.37,0.2-0.73,0.4-1.1,0.61
	c-1.35,0.76-2.69,1.55-4.01,2.38c-0.09,0.06-0.18,0.12-0.28,0.18c-1.24,0.78-2.47,1.61-3.69,2.45c-0.36,0.25-0.72,0.5-1.08,0.76
	c-1.11,0.78-2.21,1.59-3.3,2.42c-0.21,0.16-0.41,0.31-0.62,0.47c-1.26,0.98-2.51,2-3.75,3.04c-0.32,0.27-0.63,0.54-0.95,0.81
	c-0.99,0.85-1.97,1.72-2.94,2.61c-0.3,0.27-0.6,0.54-0.89,0.81c-1.2,1.12-2.38,2.26-3.55,3.44c-0.22,0.22-0.44,0.45-0.66,0.68
	c-0.98,0.99-1.94,2.01-2.9,3.04c-0.31,0.34-0.62,0.68-0.93,1.02c-1.14,1.26-2.27,2.53-3.37,3.84c0,0,0,0,0,0
	c0,0-0.01,0.01-0.01,0.01c-1.14,1.34-2.25,2.72-3.35,4.12c-0.35,0.44-0.69,0.89-1.03,1.34c-0.76,0.98-1.51,1.98-2.25,2.99
	c-0.38,0.52-0.76,1.04-1.13,1.57c-0.71,1-1.41,2.01-2.11,3.03c-0.34,0.5-0.69,1.01-1.03,1.52c-0.15,0.23-0.31,0.45-0.46,0.67
	c-0.26,0.4-0.5,0.81-0.76,1.21c-0.92,1.42-1.82,2.86-2.7,4.31c-0.4,0.67-0.8,1.34-1.2,2.01c-0.89,1.51-1.75,3.05-2.59,4.6
	c-0.22,0.41-0.47,0.81-0.69,1.22c-0.08,0.16-0.16,0.31-0.24,0.47c-0.83,1.56-1.63,3.14-2.42,4.73c-0.19,0.38-0.39,0.76-0.58,1.15
	c-0.96,1.98-1.89,3.99-2.79,6.03c-0.04,0.09-0.08,0.17-0.12,0.25c-0.26,0.59-0.5,1.2-0.75,1.8c-0.56,1.3-1.11,2.61-1.64,3.93
	c-0.32,0.8-0.62,1.61-0.93,2.42c-0.47,1.23-0.94,2.45-1.39,3.69c-0.09,0.25-0.19,0.49-0.28,0.74c-0.22,0.63-0.42,1.28-0.64,1.92
	c-0.4,1.17-0.8,2.33-1.18,3.51c-0.29,0.92-0.57,1.84-0.85,2.76c-0.36,1.17-0.7,2.34-1.04,3.51c-0.11,0.39-0.24,0.78-0.35,1.18
	c-0.15,0.53-0.27,1.06-0.41,1.59c-0.33,1.25-0.65,2.5-0.96,3.76c-0.23,0.93-0.45,1.86-0.66,2.79c-0.29,1.27-0.56,2.54-0.82,3.81
	c-0.12,0.57-0.26,1.13-0.37,1.7c-0.07,0.34-0.11,0.67-0.18,1.01c-0.31,1.63-0.59,3.26-0.85,4.9c-0.12,0.71-0.24,1.42-0.35,2.13
	c-0.35,2.34-0.66,4.69-0.92,7.05c0,0.03-0.01,0.06-0.01,0.09c-0.2,1.85-0.36,3.71-0.51,5.57c-0.04,0.53-0.07,1.06-0.11,1.59
	c-0.1,1.47-0.18,2.93-0.24,4.4c-0.02,0.51-0.05,1.02-0.06,1.53c-0.06,1.83-0.1,3.65-0.1,5.49c0,0.13,0,0.26,0,0.39
	c0.02,7.76,0.57,15.18,1.62,22.25l0.94,5.6c4.17,22.01,13.27,40.07,25.73,52.63l18.06,36.91l46.31,94.69l33.9,11.33l-46.31-94.69
	l-18.06-36.91c-12.46-12.55-21.56-30.62-25.73-52.63l-0.94-5.6c-1.05-7.06-1.61-14.48-1.62-22.25c0-1.96,0.04-3.92,0.1-5.88
	c0.02-0.51,0.04-1.02,0.06-1.53c0.06-1.47,0.14-2.94,0.24-4.4c0.04-0.53,0.07-1.06,0.11-1.59c0.14-1.89,0.31-3.78,0.52-5.66
	c0.26-2.36,0.57-4.71,0.92-7.05c0.11-0.71,0.23-1.42,0.35-2.13c0.26-1.64,0.54-3.27,0.85-4.89c0.17-0.91,0.36-1.81,0.54-2.72
	c0.26-1.27,0.53-2.55,0.82-3.81c0.21-0.93,0.43-1.87,0.66-2.79c0.31-1.26,0.63-2.51,0.96-3.75c0.25-0.93,0.49-1.85,0.75-2.77
	c0.33-1.18,0.68-2.34,1.04-3.51c0.28-0.92,0.56-1.85,0.85-2.76c0.38-1.18,0.78-2.34,1.18-3.51c0.3-0.89,0.6-1.78,0.92-2.66
	c0.44-1.23,0.91-2.46,1.38-3.68c0.31-0.81,0.61-1.63,0.94-2.44c0.53-1.32,1.08-2.62,1.64-3.92c0.29-0.68,0.57-1.38,0.87-2.06
	c0.9-2.03,1.82-4.04,2.79-6.03c0.19-0.38,0.39-0.75,0.57-1.13c0.79-1.6,1.59-3.18,2.42-4.74c0.3-0.57,0.62-1.13,0.93-1.69
	c0.84-1.55,1.71-3.08,2.59-4.6c0.4-0.68,0.79-1.35,1.2-2.01c0.88-1.46,1.78-2.89,2.69-4.31c0.41-0.63,0.8-1.26,1.21-1.89
	c0.34-0.51,0.68-1.01,1.02-1.51c0.69-1.02,1.4-2.04,2.11-3.03c0.38-0.52,0.75-1.05,1.13-1.57c0.74-1.01,1.49-2.01,2.25-2.99
	c0.34-0.45,0.68-0.9,1.03-1.34c1.1-1.39,2.2-2.77,3.34-4.11c0.01-0.01,0.02-0.02,0.02-0.03c1.11-1.31,2.23-2.58,3.37-3.84
	c0.31-0.34,0.63-0.68,0.94-1.02c0.95-1.03,1.92-2.04,2.89-3.04c0.22-0.23,0.44-0.46,0.66-0.68c1.17-1.17,2.36-2.32,3.56-3.44
	c0.29-0.27,0.59-0.54,0.89-0.81c0.97-0.89,1.96-1.76,2.95-2.61c0.32-0.27,0.63-0.55,0.95-0.81c1.24-1.04,2.49-2.06,3.75-3.04
	c0.2-0.16,0.41-0.31,0.62-0.47c1.09-0.83,2.19-1.64,3.3-2.42c0.36-0.25,0.72-0.51,1.08-0.76c1.22-0.85,2.46-1.67,3.7-2.46
	c0.09-0.06,0.18-0.12,0.27-0.17c1.33-0.83,2.67-1.62,4.01-2.38c0.36-0.21,0.73-0.4,1.1-0.61c1.11-0.61,2.23-1.19,3.35-1.75
	c0.29-0.14,0.57-0.29,0.86-0.43c1.37-0.66,2.74-1.29,4.13-1.88c0.32-0.14,0.65-0.26,0.97-0.4c1.13-0.46,2.26-0.9,3.4-1.32
	c0.37-0.14,0.74-0.27,1.12-0.4c1.45-0.5,2.91-0.98,4.38-1.4c1.73-0.5,3.45-0.92,5.16-1.29c0.06-0.01,0.11-0.03,0.17-0.04
	c1.66-0.35,3.31-0.64,4.95-0.87c0.1-0.01,0.2-0.03,0.3-0.05c1.56-0.21,3.11-0.37,4.64-0.47c0.21-0.01,0.41-0.03,0.62-0.05
	c1.48-0.09,2.95-0.12,4.41-0.12c0.24,0,0.48,0,0.72,0.01c0.94,0.02,1.87,0.08,2.81,0.14c0.76,0.05,1.53,0.08,2.28,0.15
	c0.85,0.08,1.69,0.21,2.53,0.32c0.74,0.1,1.49,0.19,2.22,0.32c1.01,0.18,2.02,0.4,3.01,0.63c0.49,0.11,0.98,0.2,1.46,0.32
	c1.48,0.37,2.94,0.8,4.39,1.28L195.06,15.88z"/>
<rect x="62.92" y="12.81" transform="matrix(0.9994 -0.0332 0.0332 0.9994 -6.596 5.9397)" class="st4" width="225" height="377.25"/>
<rect x="62.92" y="12.81" transform="matrix(0.9994 -0.0332 0.0332 0.9994 -6.596 5.9397)" class="st4" width="225" height="377.25"/>
<g>
	<defs>
		
			<rect id="SVGID_1_" x="151.92" y="96.25" transform="matrix(0.9994 -0.0332 0.0332 0.9994 -4.6499 6.435)" width="78.75" height="93.75"/>
	</defs>
	<clipPath id="SVGID_2_">
		<use xlink:href="#SVGID_1_"  style="overflow:visible;"/>
	</clipPath>
	<g class="st5">
		<defs>
			
				<rect id="SVGID_3_" x="151.92" y="96.25" transform="matrix(0.9994 -0.0332 0.0332 0.9994 -4.6499 6.435)" width="78.75" height="93.75"/>
		</defs>
		<clipPath id="SVGID_4_">
			<use xlink:href="#SVGID_3_"  style="overflow:visible;"/>
		</clipPath>
		<path class="st6" d="M223.98,110.09l-8.25-3.37c-0.02-0.01-0.05-0.02-0.08-0.03c-0.07-0.02-0.14-0.04-0.21-0.06
			c-0.02-0.01-0.04-0.01-0.06-0.02c0,0-0.01,0-0.01,0c-0.03-0.01-0.07-0.01-0.1-0.02c-0.09-0.02-0.18-0.03-0.28-0.05
			c-0.01,0-0.02,0-0.03,0c-0.1-0.01-0.21-0.02-0.32-0.02c-0.01,0-0.01,0-0.02,0c-0.12,0-0.23,0-0.35,0c-0.01,0-0.02,0-0.03,0
			c-0.09,0-0.18,0.01-0.27,0.01c-0.06,0-0.12,0.01-0.18,0.01c-0.1,0.01-0.2,0.02-0.29,0.03c-0.05,0.01-0.11,0.01-0.16,0.02
			c-0.12,0.01-0.23,0.03-0.35,0.04c-0.04,0-0.08,0.01-0.11,0.01c-0.17,0.02-0.35,0.05-0.52,0.07c-0.14,0.02-0.28,0.04-0.42,0.06
			c-0.05,0.01-0.11,0.01-0.16,0.02c-0.1,0.01-0.21,0.03-0.31,0.04c-0.06,0.01-0.12,0.01-0.18,0.02c-0.09,0.01-0.19,0.02-0.28,0.03
			c-0.06,0.01-0.12,0.01-0.19,0.01c-0.09,0.01-0.17,0.01-0.26,0.01c-0.13,0-0.26,0.01-0.38,0l0,0c-0.12,0-0.24-0.01-0.36-0.03
			c-0.09-0.01-0.17-0.03-0.26-0.04c-0.04-0.01-0.09-0.01-0.13-0.02c-0.03-0.01-0.06-0.02-0.08-0.02c-0.09-0.02-0.18-0.05-0.27-0.08
			h0l8.25,3.37c0.02,0.01,0.05,0.02,0.07,0.03c0.06,0.02,0.13,0.04,0.2,0.06c0.03,0.01,0.05,0.02,0.08,0.02c0.01,0,0.01,0,0.01,0
			c0.04,0.01,0.08,0.01,0.12,0.02c0.08,0.02,0.17,0.03,0.26,0.04c0.01,0,0.02,0,0.03,0c0.11,0.01,0.22,0.02,0.33,0.02l0,0
			c0.11,0,0.23,0,0.34,0c0.01,0,0.03,0,0.04,0c0.08,0,0.17-0.01,0.26-0.01c0.06,0,0.12-0.01,0.19-0.01
			c0.09-0.01,0.19-0.02,0.28-0.03c0.06-0.01,0.12-0.01,0.18-0.02c0.1-0.01,0.21-0.03,0.32-0.04c0.05-0.01,0.1-0.01,0.15-0.02
			c0.14-0.02,0.28-0.04,0.42-0.06c0.17-0.02,0.34-0.05,0.51-0.07c0.04-0.01,0.08-0.01,0.11-0.01c0.12-0.01,0.24-0.03,0.35-0.04
			c0.06-0.01,0.11-0.01,0.17-0.02c0.1-0.01,0.2-0.02,0.29-0.03c0.06,0,0.12-0.01,0.18-0.01c0.09-0.01,0.18-0.01,0.26-0.01
			c0.13,0,0.26-0.01,0.39,0c0.01,0,0.01,0,0.02,0c0.12,0,0.23,0.01,0.35,0.03c0.1,0.01,0.19,0.03,0.28,0.05
			c0.04,0.01,0.08,0.01,0.12,0.02c0.02,0.01,0.04,0.01,0.06,0.02C223.8,110.03,223.89,110.06,223.98,110.09L223.98,110.09
			C223.98,110.09,223.98,110.09,223.98,110.09z"/>
		<path class="st6" d="M185.82,184.52l-8.25-3.37c0.27,0.11,0.53,0.29,0.78,0.51c0.1,0.09,0.2,0.19,0.3,0.29
			c0.39,0.41,0.77,0.92,1.15,1.44c0.09,0.13,0.19,0.26,0.28,0.39c0.24,0.32,0.47,0.65,0.72,0.94c0.48,0.59,0.99,1.08,1.53,1.31
			l8.25,3.37C188.83,188.68,187.54,185.22,185.82,184.52z"/>
		<path class="st6" d="M212.19,101.04c0.07-0.03,0.15-0.06,0.22-0.08c0.04-0.01,0.08-0.03,0.12-0.04c0.03-0.01,0.06-0.02,0.09-0.03
			c0.05-0.01,0.1-0.02,0.15-0.04c0.03-0.01,0.06-0.01,0.09-0.02c0.04-0.01,0.07-0.01,0.1-0.01c0.05-0.01,0.11-0.01,0.16-0.01
			c0.04,0,0.08,0,0.12,0c0.03,0,0.06,0,0.09,0c0.05,0,0.11,0.01,0.16,0.02c0.01,0,0.03,0,0.04,0.01c0.07,0.02,0.14,0.04,0.2,0.06
			l-8.25-3.37c-0.01-0.01-0.03-0.01-0.04-0.02c-0.05-0.02-0.1-0.03-0.15-0.05c0,0-0.01,0-0.01,0c-0.01,0-0.03,0-0.04-0.01
			c-0.04-0.01-0.08-0.02-0.12-0.02c-0.01,0-0.02,0-0.04,0c-0.03,0-0.06,0-0.09,0c-0.03,0-0.05,0-0.08,0c-0.01,0-0.03,0-0.04,0
			c-0.05,0-0.11,0.01-0.16,0.01c-0.02,0-0.05,0-0.07,0.01c-0.01,0-0.02,0.01-0.04,0.01c-0.03,0.01-0.06,0.01-0.09,0.02
			c-0.05,0.01-0.1,0.02-0.15,0.04c-0.03,0.01-0.06,0.02-0.09,0.03c-0.02,0.01-0.04,0.01-0.07,0.02c-0.02,0.01-0.04,0.01-0.06,0.02
			c-0.07,0.02-0.14,0.05-0.22,0.08c-0.03,0.01-0.06,0.02-0.09,0.04c-0.1,0.04-0.21,0.09-0.32,0.15c-0.77,0.38-1.61,0.98-2.45,1.57
			c-0.84,0.59-1.68,1.19-2.45,1.57c-0.11,0.05-0.21,0.1-0.31,0.14c-0.02,0.01-0.04,0.02-0.06,0.03c-0.1,0.04-0.2,0.08-0.3,0.11
			c-0.03,0.01-0.05,0.02-0.08,0.02c-0.04,0.01-0.08,0.03-0.13,0.04c-0.03,0.01-0.06,0.01-0.09,0.02c-0.04,0.01-0.08,0.02-0.12,0.02
			c-0.03,0-0.05,0.01-0.08,0.01c-0.08,0.01-0.17,0.02-0.24,0.02c-0.06,0-0.12,0-0.18-0.01c-0.08-0.01-0.16-0.02-0.24-0.04
			c-0.02,0-0.04-0.01-0.06-0.02c-0.06-0.02-0.13-0.04-0.19-0.06l8.25,3.37c0.02,0.01,0.04,0.01,0.05,0.02
			c0.04,0.02,0.09,0.03,0.14,0.04c0.02,0.01,0.04,0.01,0.06,0.02c0,0,0.01,0,0.01,0c0.06,0.02,0.13,0.03,0.19,0.03
			c0.01,0,0.02,0,0.03,0c0.06,0.01,0.12,0.01,0.18,0.01h0c0.08,0,0.16-0.01,0.25-0.02c0.01,0,0.02,0,0.03,0
			c0.02,0,0.03-0.01,0.05-0.01c0.04-0.01,0.08-0.02,0.12-0.02c0.03-0.01,0.06-0.01,0.09-0.02c0.04-0.01,0.08-0.02,0.13-0.04
			c0.02-0.01,0.04-0.01,0.06-0.02c0.01,0,0.01-0.01,0.02-0.01c0.1-0.03,0.2-0.07,0.3-0.11c0.02-0.01,0.04-0.02,0.06-0.03
			c0.1-0.04,0.21-0.09,0.32-0.14c0.77-0.38,1.61-0.98,2.45-1.57c0.84-0.59,1.68-1.19,2.45-1.57c0.11-0.05,0.21-0.1,0.32-0.15
			C212.12,101.06,212.15,101.05,212.19,101.04z"/>
		<path class="st6" d="M176.88,188.27c-2.08-0.9-1.35-7.3-3.09-8.85c-0.14-0.13-0.31-0.23-0.5-0.3l-8.25-3.37
			c0.18,0.08,0.35,0.17,0.5,0.3c1.74,1.55,1.01,7.96,3.09,8.85c0.01,0,0.02,0.01,0.02,0.01l8.25,3.37
			C176.89,188.28,176.89,188.28,176.88,188.27z"/>
		<path class="st6" d="M199.56,99.66c0.01,0,0.02,0,0.02,0c0.07,0.01,0.15,0.02,0.22,0.04c0.03,0.01,0.06,0.02,0.09,0.03
			c0.05,0.02,0.11,0.03,0.16,0.05l0,0c0,0,0,0,0,0l-8.25-3.37c-0.02-0.01-0.04-0.01-0.06-0.02c-0.04-0.01-0.07-0.02-0.11-0.03
			c-0.03-0.01-0.06-0.02-0.09-0.03c-0.01,0-0.01,0-0.02-0.01c-0.06-0.02-0.13-0.03-0.2-0.03c0,0,0,0,0,0c-0.01,0-0.02,0-0.03,0
			c-0.06-0.01-0.12-0.01-0.18-0.01c-0.01,0-0.02,0-0.03,0c-0.03,0-0.06,0.01-0.08,0.01c-0.04,0-0.07,0-0.11,0.01
			c-0.03,0-0.06,0.01-0.08,0.02c-0.05,0.01-0.11,0.03-0.16,0.04c-0.01,0-0.02,0.01-0.03,0.01c-0.09,0.03-0.17,0.06-0.26,0.11
			l8.25,3.37c0.09-0.04,0.17-0.08,0.26-0.11c0.06-0.02,0.13-0.04,0.19-0.06c0.06-0.01,0.13-0.02,0.19-0.03
			c0.03,0,0.06-0.01,0.08-0.01C199.42,99.66,199.49,99.66,199.56,99.66z"/>
		<path class="st6" d="M190.19,96.6c-0.02,0.01-0.04,0.03-0.06,0.04c-0.05,0.03-0.09,0.06-0.14,0.09c-0.02,0.02-0.04,0.03-0.07,0.05
			c-0.05,0.03-0.09,0.07-0.14,0.11c-0.02,0.02-0.04,0.03-0.06,0.05c-0.06,0.05-0.13,0.11-0.19,0.17c0,0-0.01,0.01-0.02,0.01
			c-0.06,0.06-0.12,0.11-0.18,0.17c-0.02,0.02-0.04,0.04-0.06,0.06c-0.04,0.05-0.09,0.09-0.14,0.14c-0.02,0.02-0.04,0.05-0.07,0.07
			c-0.02,0.02-0.03,0.03-0.05,0.05c-0.02,0.02-0.04,0.05-0.06,0.07c-0.04,0.05-0.09,0.1-0.13,0.15c-0.03,0.04-0.06,0.08-0.1,0.12
			c-0.04,0.05-0.09,0.11-0.13,0.16c-0.03,0.04-0.06,0.08-0.09,0.12c-0.04,0.06-0.09,0.12-0.13,0.17c-0.03,0.04-0.06,0.08-0.09,0.12
			c-0.05,0.06-0.09,0.13-0.14,0.19c-0.02,0.03-0.04,0.06-0.06,0.09c0,0.01-0.01,0.01-0.01,0.02c-0.17,0.24-0.34,0.48-0.52,0.73
			c-0.01,0.02-0.03,0.04-0.04,0.06c-0.17,0.24-0.34,0.49-0.51,0.74c-0.17,0.25-0.35,0.51-0.52,0.76c-0.01,0.02-0.03,0.04-0.04,0.06
			c-0.17,0.25-0.35,0.5-0.52,0.74c0,0.01-0.01,0.01-0.01,0.02c-0.08,0.1-0.15,0.21-0.23,0.31c-0.02,0.03-0.04,0.05-0.06,0.08
			c-0.06,0.07-0.11,0.15-0.17,0.22c-0.03,0.04-0.06,0.07-0.08,0.1c-0.05,0.06-0.1,0.12-0.15,0.18c-0.03,0.04-0.06,0.07-0.09,0.11
			c-0.05,0.05-0.09,0.11-0.14,0.16c-0.04,0.05-0.08,0.09-0.12,0.13c-0.02,0.03-0.05,0.05-0.07,0.08c-0.05,0.06-0.1,0.11-0.16,0.16
			c-0.01,0.01-0.03,0.03-0.04,0.04c-0.07,0.07-0.13,0.13-0.2,0.19c-0.02,0.02-0.03,0.03-0.05,0.05c-0.05,0.04-0.1,0.09-0.15,0.13
			c-0.02,0.02-0.05,0.04-0.07,0.06c-0.04,0.04-0.09,0.07-0.13,0.1c-0.02,0.02-0.05,0.04-0.07,0.05c-0.05,0.03-0.09,0.06-0.14,0.09
			c-0.02,0.01-0.04,0.03-0.06,0.04c-0.07,0.04-0.13,0.08-0.2,0.11c-0.07,0.03-0.13,0.06-0.2,0.09c-0.02,0.01-0.04,0.02-0.07,0.02
			c-0.05,0.02-0.09,0.03-0.14,0.05c-0.03,0.01-0.06,0.02-0.09,0.03c-0.04,0.01-0.08,0.02-0.13,0.03c-0.03,0.01-0.06,0.01-0.09,0.02
			c-0.04,0.01-0.09,0.01-0.13,0.02c-0.03,0-0.06,0.01-0.1,0.01c-0.04,0-0.09,0.01-0.13,0.01c-0.03,0-0.06,0-0.1,0.01
			c-0.04,0-0.07,0-0.11,0c-0.05,0-0.1,0-0.14,0c-0.04,0-0.07,0-0.11-0.01c-0.05,0-0.09-0.01-0.14-0.01c-0.03,0-0.06-0.01-0.09-0.01
			c-0.1-0.01-0.21-0.03-0.32-0.05c-0.01,0-0.01,0-0.02,0c-0.11-0.02-0.23-0.04-0.34-0.07c-0.03-0.01-0.06-0.01-0.09-0.02
			c-0.09-0.02-0.18-0.04-0.27-0.07c-0.02,0-0.03-0.01-0.05-0.01c-0.11-0.03-0.21-0.06-0.32-0.09c-0.03-0.01-0.06-0.02-0.09-0.03
			c-0.08-0.03-0.17-0.05-0.25-0.08c-0.03-0.01-0.05-0.02-0.08-0.03c-0.11-0.03-0.22-0.07-0.33-0.11c-0.09-0.03-0.19-0.06-0.28-0.09
			c-0.03-0.01-0.07-0.02-0.1-0.03c-0.1-0.03-0.2-0.06-0.3-0.09c-0.01,0-0.02-0.01-0.03-0.01c-0.1-0.03-0.21-0.06-0.31-0.09
			c-0.03-0.01-0.06-0.02-0.08-0.02c-0.08-0.02-0.17-0.04-0.25-0.06c-0.02,0-0.04-0.01-0.05-0.01c-0.01,0-0.01,0-0.02,0
			c-0.11-0.03-0.22-0.05-0.32-0.07c-0.02,0-0.05-0.01-0.07-0.01c-0.09-0.02-0.18-0.03-0.28-0.04c-0.01,0-0.03,0-0.04-0.01
			c-0.01,0-0.01,0-0.02,0c-0.05-0.01-0.1-0.01-0.14-0.01c-0.03,0-0.07-0.01-0.1-0.01c-0.05,0-0.1,0-0.15,0c-0.03,0-0.05,0-0.08,0
			c0,0-0.01,0-0.01,0c-0.02,0-0.04,0-0.06,0c-0.05,0-0.1,0-0.16,0.01c-0.03,0-0.05,0.01-0.08,0.01c-0.03,0-0.07,0.01-0.1,0.01
			c-0.01,0-0.02,0-0.04,0.01c-0.03,0-0.06,0.01-0.08,0.02c-0.04,0.01-0.09,0.02-0.13,0.03c-0.03,0.01-0.06,0.02-0.08,0.02
			c-0.02,0.01-0.04,0.01-0.06,0.02c-0.03,0.01-0.05,0.02-0.08,0.03c-0.02,0.01-0.04,0.01-0.06,0.02c-0.07,0.03-0.13,0.05-0.19,0.08
			c-0.15,0.07-0.3,0.17-0.44,0.28c-0.07,0.06-0.14,0.12-0.21,0.18c-0.02,0.02-0.04,0.05-0.07,0.07c-0.04,0.04-0.08,0.08-0.12,0.13
			c0,0-0.01,0.01-0.01,0.01c-0.08,0.09-0.16,0.19-0.24,0.29c-0.01,0.01-0.01,0.02-0.02,0.03c-0.02,0.02-0.03,0.05-0.04,0.07
			c-0.05,0.07-0.1,0.14-0.14,0.21c-0.01,0.02-0.03,0.04-0.04,0.06c-0.01,0.02-0.02,0.03-0.03,0.05c-0.06,0.09-0.11,0.19-0.17,0.29
			c-0.01,0.02-0.02,0.03-0.03,0.05c0,0,0,0.01-0.01,0.01c-0.07,0.14-0.14,0.28-0.21,0.43c-0.01,0.02-0.01,0.03-0.02,0.04
			c-0.01,0.03-0.03,0.07-0.04,0.1c-0.02,0.05-0.05,0.1-0.07,0.16c-0.03,0.06-0.05,0.12-0.08,0.18c-0.02,0.05-0.04,0.11-0.07,0.16
			c-0.01,0.02-0.02,0.04-0.03,0.07c-0.01,0.02-0.02,0.05-0.03,0.07c-0.06,0.15-0.11,0.3-0.17,0.45c-0.01,0.01-0.01,0.03-0.02,0.04
			c-0.06,0.17-0.12,0.34-0.18,0.51c-0.01,0.02-0.01,0.04-0.02,0.05c-0.01,0.02-0.01,0.03-0.02,0.05c-0.09,0.27-0.17,0.54-0.26,0.82
			c-0.01,0.02-0.01,0.04-0.02,0.06c-0.09,0.29-0.18,0.59-0.27,0.88c-0.09,0.29-0.17,0.57-0.26,0.85c-0.01,0.03-0.02,0.06-0.03,0.09
			c-0.08,0.27-0.17,0.55-0.26,0.81c-0.01,0.03-0.02,0.05-0.03,0.08c-0.06,0.17-0.11,0.33-0.17,0.5c-0.01,0.03-0.02,0.07-0.04,0.1
			c-0.05,0.14-0.1,0.28-0.16,0.42c-0.01,0.03-0.03,0.07-0.04,0.1c-0.02,0.05-0.04,0.1-0.06,0.16c-0.02,0.06-0.05,0.12-0.07,0.18
			c-0.02,0.05-0.04,0.1-0.07,0.15c-0.02,0.05-0.05,0.11-0.07,0.16c-0.07,0.14-0.13,0.28-0.2,0.41c-0.02,0.03-0.03,0.06-0.05,0.09
			c-0.05,0.09-0.1,0.17-0.14,0.25c-0.02,0.04-0.04,0.07-0.06,0.11c-0.05,0.08-0.1,0.15-0.15,0.22c-0.02,0.03-0.04,0.05-0.05,0.08
			c-0.07,0.09-0.13,0.17-0.2,0.25c-0.07,0.08-0.14,0.14-0.21,0.21c-0.05,0.05-0.09,0.1-0.14,0.14c-0.07,0.06-0.15,0.12-0.22,0.18
			c-0.05,0.04-0.09,0.08-0.14,0.11c-0.08,0.06-0.17,0.12-0.26,0.17c-0.04,0.03-0.08,0.06-0.13,0.08c-0.13,0.08-0.27,0.16-0.42,0.23
			c-0.17,0.09-0.35,0.17-0.54,0.24c-0.04,0.02-0.07,0.03-0.11,0.05c-0.18,0.07-0.36,0.14-0.54,0.2c-0.03,0.01-0.07,0.02-0.1,0.03
			c-0.13,0.04-0.26,0.08-0.39,0.13c-0.28,0.09-0.55,0.17-0.83,0.25c-0.28,0.08-0.56,0.17-0.83,0.25c-0.05,0.02-0.1,0.03-0.16,0.05
			c-0.08,0.02-0.15,0.05-0.23,0.08c-0.03,0.01-0.07,0.02-0.1,0.04c-0.18,0.06-0.36,0.13-0.54,0.2c-0.04,0.02-0.08,0.03-0.11,0.05
			c-0.18,0.08-0.36,0.15-0.54,0.24c-0.12,0.06-0.24,0.13-0.36,0.2c-0.03,0.02-0.06,0.04-0.09,0.05c-0.11,0.07-0.22,0.14-0.32,0.21
			c-0.01,0.01-0.02,0.01-0.02,0.02c-0.11,0.08-0.21,0.16-0.31,0.25c-0.03,0.02-0.05,0.05-0.08,0.07c-0.09,0.08-0.18,0.17-0.26,0.26
			c-0.01,0.01-0.02,0.02-0.03,0.03c0,0,0,0.01-0.01,0.01c-0.07,0.08-0.15,0.17-0.21,0.26c0,0-0.01,0.01-0.01,0.01
			c-0.05,0.07-0.11,0.15-0.16,0.23c0,0-0.01,0.01-0.01,0.01c-0.04,0.07-0.08,0.13-0.12,0.2c-0.01,0.01-0.01,0.03-0.02,0.04
			c-0.01,0.03-0.03,0.06-0.04,0.08c-0.02,0.03-0.03,0.06-0.05,0.1c-0.01,0.02-0.02,0.05-0.03,0.08c-0.02,0.03-0.03,0.07-0.04,0.1
			c-0.01,0.02-0.02,0.04-0.03,0.07c-0.01,0.03-0.03,0.07-0.04,0.11c-0.01,0.04-0.03,0.07-0.04,0.11c-0.01,0.01-0.01,0.03-0.02,0.04
			c-0.01,0.03-0.02,0.07-0.03,0.1c-0.02,0.06-0.04,0.12-0.05,0.18c0,0.02-0.01,0.03-0.01,0.05c-0.01,0.02-0.01,0.05-0.02,0.08
			c-0.02,0.09-0.04,0.18-0.06,0.27c0,0.02-0.01,0.05-0.02,0.07c0,0.01,0,0.03-0.01,0.04c-0.03,0.17-0.06,0.34-0.08,0.52
			c0,0.01,0,0.03-0.01,0.04c0,0.02,0,0.04-0.01,0.06c-0.02,0.17-0.03,0.34-0.05,0.51c0,0.02,0,0.03,0,0.05
			c-0.01,0.17-0.02,0.34-0.02,0.51c0,0.02,0,0.03,0,0.05c0,0.01,0,0.02,0,0.03c0,0.16,0,0.33,0,0.5c0,0.04,0,0.08,0,0.11
			c0,0.15,0,0.31,0.01,0.46c0,0.02,0,0.04,0,0.06c0,0.17,0.01,0.35,0.02,0.52c0,0.04,0,0.09,0.01,0.13
			c0.01,0.16,0.01,0.33,0.02,0.49c0.01,0.17,0.01,0.33,0.02,0.5c0,0.05,0,0.09,0.01,0.14c0.01,0.17,0.01,0.35,0.02,0.52
			c0,0.02,0,0.04,0,0.07c0,0.15,0.01,0.31,0.01,0.46c0,0.04,0,0.07,0,0.11c0,0.17,0,0.33,0,0.5c0,0.03,0,0.06,0,0.09
			c0,0.17-0.01,0.35-0.02,0.52c0,0.01,0,0.03,0,0.04c-0.01,0.17-0.03,0.35-0.05,0.51c0,0.03-0.01,0.07-0.01,0.1
			c-0.02,0.18-0.05,0.35-0.08,0.52c-0.01,0.04-0.01,0.07-0.02,0.11c-0.02,0.09-0.04,0.17-0.06,0.26c-0.01,0.04-0.02,0.08-0.03,0.12
			c-0.02,0.06-0.03,0.12-0.05,0.18c-0.01,0.05-0.03,0.1-0.05,0.15c-0.01,0.04-0.03,0.08-0.04,0.11c-0.03,0.07-0.05,0.15-0.08,0.22
			c-0.03,0.08-0.07,0.15-0.1,0.23c-0.02,0.04-0.04,0.08-0.06,0.12c-0.02,0.04-0.05,0.09-0.07,0.13c-0.04,0.06-0.07,0.13-0.11,0.19
			c-0.02,0.04-0.04,0.07-0.06,0.11c-0.08,0.12-0.16,0.24-0.25,0.36c-0.02,0.03-0.04,0.05-0.06,0.08c-0.06,0.08-0.12,0.16-0.18,0.23
			c-0.03,0.03-0.06,0.07-0.08,0.1c-0.06,0.07-0.13,0.15-0.19,0.22c-0.02,0.03-0.05,0.05-0.07,0.08c-0.14,0.16-0.3,0.32-0.45,0.48
			c-0.01,0.01-0.03,0.03-0.04,0.04c-0.16,0.16-0.33,0.32-0.49,0.48c-0.01,0.01-0.03,0.03-0.04,0.04c-0.17,0.16-0.35,0.32-0.53,0.48
			c-0.01,0.01-0.02,0.02-0.03,0.03c-0.18,0.16-0.37,0.33-0.55,0.49c-0.19,0.17-0.38,0.34-0.57,0.51c0,0-0.01,0.01-0.01,0.01
			c-0.19,0.17-0.37,0.34-0.56,0.51c0,0,0,0-0.01,0.01c-0.18,0.17-0.36,0.34-0.53,0.51c-0.01,0.01-0.01,0.01-0.02,0.02
			c-0.17,0.17-0.33,0.34-0.48,0.51c0,0-0.01,0.01-0.01,0.01c-0.01,0.01-0.03,0.03-0.04,0.04c-0.08,0.09-0.15,0.17-0.22,0.26
			c-0.03,0.03-0.05,0.07-0.08,0.1c-0.07,0.08-0.13,0.16-0.19,0.24c-0.02,0.02-0.03,0.04-0.05,0.06c-0.01,0.01-0.01,0.01-0.01,0.02
			c-0.09,0.12-0.17,0.24-0.25,0.37c-0.01,0.01-0.02,0.02-0.02,0.03c-0.02,0.03-0.03,0.05-0.04,0.08c-0.04,0.06-0.07,0.12-0.1,0.18
			c-0.01,0.02-0.02,0.04-0.03,0.06c-0.01,0.03-0.03,0.05-0.04,0.08c-0.02,0.04-0.04,0.08-0.06,0.13c-0.01,0.02-0.02,0.04-0.03,0.06
			c-0.02,0.03-0.03,0.07-0.04,0.1c-0.02,0.03-0.03,0.07-0.05,0.1c-0.01,0.01-0.01,0.03-0.02,0.04c-0.02,0.06-0.04,0.12-0.06,0.18
			c-0.01,0.01-0.01,0.03-0.02,0.04c0,0,0,0.01,0,0.01c-0.03,0.08-0.05,0.15-0.07,0.23c0,0.02-0.01,0.03-0.01,0.05
			c-0.02,0.07-0.03,0.14-0.04,0.2c0,0.02-0.01,0.03-0.01,0.05c-0.01,0.04-0.01,0.07-0.02,0.11c0,0.03-0.01,0.06-0.01,0.1
			c0,0.02,0,0.03,0,0.05c-0.01,0.1-0.02,0.2-0.02,0.3c0,0.02,0,0.03,0,0.05c0,0,0,0.01,0,0.01c0,0.03,0,0.06,0,0.08
			c0,0.06,0,0.13,0,0.19c0,0.04,0.01,0.07,0.01,0.1c0,0.06,0.01,0.11,0.02,0.17c0,0.04,0.01,0.07,0.01,0.11
			c0.01,0.05,0.02,0.11,0.03,0.16c0.01,0.04,0.01,0.07,0.02,0.11c0.01,0.05,0.02,0.11,0.04,0.16c0.01,0.04,0.02,0.07,0.03,0.11
			c0.01,0.06,0.03,0.12,0.05,0.17c0.01,0.03,0.02,0.07,0.03,0.1c0.02,0.07,0.04,0.13,0.06,0.2c0.01,0.02,0.02,0.05,0.02,0.07
			c0.03,0.09,0.06,0.18,0.1,0.27c0.01,0.02,0.02,0.04,0.02,0.06c0.03,0.07,0.05,0.14,0.08,0.21c0.01,0.03,0.03,0.07,0.04,0.1
			c0.02,0.06,0.05,0.11,0.07,0.17c0.02,0.04,0.03,0.07,0.05,0.11c0.02,0.05,0.05,0.11,0.07,0.16c0.02,0.04,0.03,0.07,0.05,0.11
			c0.03,0.05,0.05,0.11,0.08,0.16c0.02,0.04,0.04,0.07,0.05,0.11c0.03,0.06,0.05,0.11,0.08,0.17c0.02,0.04,0.04,0.07,0.05,0.11
			c0.03,0.06,0.06,0.12,0.09,0.19c0.01,0.03,0.03,0.05,0.04,0.08c0.04,0.08,0.08,0.16,0.12,0.24c0.05,0.1,0.1,0.19,0.15,0.29
			c0.01,0.03,0.03,0.05,0.04,0.08c0.03,0.06,0.07,0.13,0.1,0.19c0.02,0.03,0.03,0.07,0.05,0.1c0.03,0.06,0.06,0.11,0.08,0.17
			c0.02,0.04,0.04,0.07,0.05,0.11c0.03,0.05,0.05,0.11,0.08,0.16c0.02,0.04,0.03,0.07,0.05,0.11c0.03,0.06,0.05,0.11,0.08,0.17
			c0.02,0.04,0.03,0.07,0.05,0.11c0.03,0.06,0.05,0.12,0.08,0.18c0.01,0.03,0.03,0.06,0.04,0.1c0.03,0.08,0.06,0.15,0.09,0.23
			c0.01,0.02,0.01,0.03,0.02,0.05c0.03,0.09,0.07,0.18,0.1,0.27c0.01,0.03,0.02,0.05,0.02,0.08c0.02,0.07,0.04,0.13,0.06,0.2
			c0.01,0.03,0.02,0.07,0.03,0.1c0.02,0.06,0.03,0.12,0.05,0.17c0.01,0.04,0.02,0.07,0.03,0.11c0.01,0.06,0.02,0.11,0.04,0.17
			c0.01,0.04,0.01,0.08,0.02,0.11c0.01,0.06,0.02,0.11,0.03,0.17c0.01,0.04,0.01,0.07,0.01,0.11c0.01,0.06,0.01,0.12,0.02,0.18
			c0,0.03,0.01,0.07,0.01,0.1c0,0.07,0,0.14,0.01,0.2c0,0.03,0,0.05,0,0.08c0,0.1-0.01,0.19-0.01,0.29
			c-0.01,0.07-0.02,0.14-0.03,0.21c-0.01,0.06-0.02,0.12-0.03,0.19c-0.01,0.04-0.02,0.09-0.03,0.13c-0.01,0.07-0.03,0.14-0.05,0.21
			c-0.01,0.04-0.02,0.08-0.03,0.12c-0.03,0.12-0.07,0.24-0.11,0.37c0,0.01-0.01,0.02-0.01,0.03c-0.05,0.14-0.1,0.28-0.15,0.42
			c-0.02,0.04-0.03,0.08-0.05,0.12c-0.02,0.06-0.05,0.12-0.07,0.18c-0.02,0.05-0.05,0.11-0.07,0.16c-0.03,0.06-0.05,0.12-0.08,0.18
			c-0.02,0.05-0.04,0.09-0.07,0.14c-0.09,0.18-0.18,0.37-0.27,0.55c-0.02,0.03-0.03,0.06-0.05,0.1c-0.1,0.19-0.19,0.38-0.3,0.56
			c-0.02,0.03-0.03,0.06-0.05,0.1c-0.1,0.18-0.2,0.36-0.3,0.55c-0.01,0.01-0.01,0.02-0.02,0.03c-0.11,0.19-0.21,0.39-0.32,0.58
			c-0.1,0.19-0.21,0.37-0.31,0.56c-0.02,0.04-0.04,0.08-0.06,0.11c-0.1,0.18-0.2,0.37-0.3,0.55c-0.01,0.01-0.01,0.02-0.02,0.03
			c-0.01,0.01-0.01,0.03-0.02,0.04c-0.11,0.21-0.22,0.41-0.32,0.62c-0.01,0.02-0.02,0.04-0.03,0.05c-0.11,0.21-0.21,0.42-0.31,0.63
			c0,0,0,0.01,0,0.01c-0.02,0.03-0.03,0.07-0.04,0.1c-0.04,0.08-0.08,0.17-0.11,0.25c-0.02,0.04-0.04,0.09-0.06,0.13
			c-0.03,0.07-0.06,0.15-0.09,0.22c0,0.01-0.01,0.02-0.01,0.03c-0.01,0.02-0.01,0.03-0.02,0.05c-0.05,0.14-0.11,0.28-0.15,0.42
			c-0.01,0.02-0.02,0.04-0.02,0.06c0,0.01-0.01,0.02-0.01,0.03c-0.04,0.13-0.08,0.26-0.12,0.39c0,0,0,0.01,0,0.01
			c-0.01,0.02-0.01,0.04-0.02,0.06c-0.02,0.09-0.05,0.18-0.06,0.27c0,0.01-0.01,0.02-0.01,0.04c-0.01,0.03-0.01,0.05-0.01,0.08
			c-0.01,0.08-0.03,0.15-0.04,0.23c0,0.02-0.01,0.04-0.01,0.06c0,0.02,0,0.04,0,0.06c-0.01,0.09-0.01,0.17-0.02,0.26
			c0,0.02,0,0.05,0,0.07c0,0.01,0,0.02,0,0.03c0,0.11,0,0.22,0.01,0.33c0.29,3.02,5.03,3.14,5.83,5.7c0.03,0.09,0.05,0.19,0.07,0.29
			c0.01,0.03,0.01,0.07,0.02,0.1c0.01,0.07,0.02,0.14,0.03,0.21c0,0.04,0.01,0.08,0.01,0.12c0.01,0.07,0.01,0.14,0.01,0.22
			c0,0.04,0,0.08,0,0.13c0,0.08,0,0.16,0,0.25c0,0.04,0,0.07,0,0.11c0,0.14-0.01,0.29-0.02,0.45c0,0.04-0.01,0.07-0.01,0.11
			c-0.01,0.13-0.02,0.26-0.04,0.4c0,0.03-0.01,0.06-0.01,0.09c-0.02,0.15-0.04,0.3-0.06,0.45c-0.01,0.03-0.01,0.07-0.02,0.1
			c-0.02,0.12-0.04,0.25-0.06,0.37c-0.01,0.05-0.02,0.1-0.02,0.14c-0.02,0.13-0.05,0.26-0.07,0.39c-0.01,0.03-0.01,0.06-0.02,0.09
			c-0.03,0.16-0.06,0.32-0.09,0.48c-0.01,0.04-0.01,0.07-0.02,0.11c-0.05,0.23-0.09,0.45-0.14,0.68c-0.04,0.21-0.08,0.41-0.12,0.62
			c0,0.02-0.01,0.05-0.01,0.07c0,0.01,0,0.01,0,0.02c-0.03,0.16-0.06,0.32-0.09,0.48c-0.01,0.04-0.01,0.07-0.02,0.11
			c-0.02,0.12-0.05,0.25-0.07,0.37c-0.01,0.05-0.02,0.09-0.02,0.14c-0.02,0.14-0.05,0.27-0.07,0.41c0,0.02-0.01,0.04-0.01,0.06
			c-0.02,0.15-0.04,0.3-0.06,0.44c0,0.02,0,0.03-0.01,0.05c0,0.02,0,0.04-0.01,0.07c-0.02,0.13-0.03,0.26-0.04,0.38
			c0,0.03-0.01,0.07-0.01,0.1c-0.01,0.15-0.02,0.29-0.02,0.43c0,0.01,0,0.02,0,0.03c0,0.06,0,0.12,0,0.18c0,0.03,0,0.05,0,0.08
			c0,0.1,0,0.19,0.01,0.28c0,0.02,0,0.04,0.01,0.06c0.01,0.07,0.01,0.14,0.02,0.21c0,0.03,0.01,0.06,0.01,0.09
			c0.01,0.06,0.02,0.11,0.03,0.16c0.01,0.03,0.01,0.06,0.02,0.09c0.01,0.05,0.03,0.1,0.04,0.15c0.01,0.03,0.02,0.06,0.03,0.09
			c0.02,0.05,0.04,0.1,0.06,0.15c0.01,0.02,0.02,0.05,0.03,0.07c0.03,0.07,0.06,0.13,0.1,0.2c0.2,0.32,0.47,0.53,0.8,0.67l8.25,3.37
			c-0.33-0.14-0.61-0.35-0.8-0.67c-0.04-0.06-0.07-0.13-0.1-0.2c-0.01-0.02-0.02-0.05-0.03-0.07c-0.02-0.05-0.04-0.1-0.06-0.15
			c-0.01-0.03-0.02-0.06-0.03-0.09c-0.01-0.05-0.03-0.1-0.04-0.15c-0.01-0.03-0.01-0.06-0.02-0.09c-0.01-0.05-0.02-0.11-0.03-0.16
			c0-0.03-0.01-0.06-0.01-0.09c-0.01-0.07-0.01-0.14-0.02-0.21c0-0.02,0-0.04-0.01-0.06c-0.01-0.09-0.01-0.19-0.01-0.28
			c0-0.02,0-0.05,0-0.08c0-0.07,0-0.14,0-0.21c0-0.14,0.01-0.28,0.02-0.43c0-0.03,0.01-0.07,0.01-0.1c0.01-0.13,0.02-0.25,0.04-0.38
			c0-0.04,0.01-0.07,0.01-0.11c0.02-0.15,0.04-0.29,0.06-0.44c0-0.02,0.01-0.04,0.01-0.06c0.02-0.13,0.04-0.27,0.07-0.41
			c0.01-0.05,0.02-0.09,0.02-0.14c0.02-0.12,0.04-0.25,0.07-0.37c0.01-0.04,0.01-0.07,0.02-0.11c0.03-0.16,0.06-0.32,0.09-0.48
			c0.01-0.03,0.01-0.06,0.02-0.09c0.04-0.21,0.08-0.41,0.12-0.62c0.05-0.23,0.09-0.45,0.14-0.68c0.01-0.03,0.01-0.05,0.02-0.08
			c0-0.01,0-0.02,0.01-0.03c0.03-0.16,0.06-0.32,0.09-0.48c0.01-0.03,0.01-0.06,0.02-0.09c0.02-0.13,0.05-0.26,0.07-0.39
			c0.01-0.05,0.02-0.1,0.02-0.14c0.02-0.13,0.04-0.25,0.06-0.37c0.01-0.03,0.01-0.07,0.02-0.1c0.02-0.15,0.04-0.3,0.06-0.45
			c0-0.01,0-0.02,0-0.03c0-0.02,0-0.04,0.01-0.06c0.02-0.14,0.03-0.27,0.04-0.4c0-0.04,0.01-0.07,0.01-0.11
			c0.01-0.15,0.02-0.3,0.02-0.45c0-0.01,0-0.02,0-0.03c0-0.03,0-0.05,0-0.08c0-0.08,0-0.17,0-0.25c0-0.04,0-0.09,0-0.13
			c0-0.07-0.01-0.15-0.01-0.22c0-0.04-0.01-0.08-0.01-0.12c-0.01-0.07-0.02-0.14-0.03-0.21c-0.01-0.03-0.01-0.07-0.02-0.1
			c-0.02-0.1-0.04-0.2-0.07-0.29c-0.8-2.56-5.54-2.68-5.83-5.7c-0.01-0.11-0.01-0.22-0.01-0.33c0-0.03,0-0.07,0-0.1
			c0-0.09,0.01-0.17,0.02-0.26c0-0.04,0.01-0.08,0.01-0.12c0.01-0.07,0.02-0.15,0.04-0.23c0.01-0.04,0.01-0.08,0.02-0.12
			c0.02-0.09,0.04-0.18,0.06-0.27c0.01-0.03,0.01-0.05,0.02-0.08c0.03-0.13,0.07-0.26,0.12-0.39c0.01-0.03,0.02-0.06,0.03-0.09
			c0.05-0.14,0.1-0.28,0.15-0.42c0.01-0.03,0.02-0.05,0.03-0.08c0.03-0.07,0.06-0.15,0.09-0.22c0.02-0.04,0.04-0.09,0.06-0.13
			c0.04-0.08,0.07-0.16,0.11-0.25c0.02-0.04,0.03-0.07,0.05-0.11c0.1-0.21,0.2-0.42,0.31-0.63c0.01-0.02,0.02-0.04,0.03-0.05
			c0.1-0.21,0.21-0.41,0.32-0.62c0.01-0.02,0.03-0.05,0.04-0.07c0.1-0.18,0.2-0.36,0.3-0.55c0.02-0.04,0.04-0.08,0.06-0.11
			c0.1-0.19,0.21-0.37,0.31-0.56c0.11-0.19,0.22-0.39,0.32-0.58c0.01-0.01,0.01-0.02,0.02-0.03c0.1-0.18,0.2-0.36,0.3-0.55
			c0.01-0.02,0.02-0.04,0.04-0.07c0.01-0.01,0.01-0.02,0.02-0.03c0.1-0.19,0.2-0.38,0.3-0.56c0.02-0.03,0.03-0.06,0.05-0.1
			c0.09-0.19,0.18-0.37,0.27-0.55c0.01-0.01,0.01-0.03,0.02-0.04c0.02-0.03,0.03-0.07,0.05-0.1c0.03-0.06,0.05-0.12,0.08-0.18
			c0.02-0.05,0.05-0.11,0.07-0.16c0.03-0.06,0.05-0.12,0.07-0.18c0.01-0.02,0.02-0.05,0.03-0.07c0.01-0.02,0.01-0.04,0.02-0.05
			c0.06-0.14,0.11-0.28,0.15-0.42c0-0.01,0.01-0.02,0.01-0.03c0,0,0,0,0-0.01c0.04-0.12,0.08-0.25,0.11-0.37
			c0-0.01,0.01-0.02,0.01-0.03c0.01-0.03,0.01-0.06,0.02-0.09c0.02-0.07,0.04-0.14,0.05-0.21c0-0.02,0.01-0.04,0.01-0.06
			c0.01-0.03,0.01-0.05,0.01-0.08c0.01-0.06,0.02-0.13,0.03-0.19c0-0.02,0.01-0.05,0.01-0.07c0.01-0.05,0.01-0.09,0.01-0.14
			c0.01-0.09,0.01-0.18,0.01-0.28c0,0,0-0.01,0-0.01c0-0.03,0-0.05,0-0.08c0-0.07,0-0.14-0.01-0.2c0-0.03-0.01-0.07-0.01-0.1
			c0-0.06-0.01-0.12-0.02-0.18c0-0.04-0.01-0.07-0.01-0.11c-0.01-0.06-0.02-0.11-0.03-0.17c-0.01-0.04-0.01-0.08-0.02-0.11
			c-0.01-0.06-0.02-0.11-0.04-0.17c-0.01-0.04-0.02-0.07-0.03-0.11c-0.01-0.06-0.03-0.12-0.05-0.17c-0.01-0.03-0.02-0.07-0.03-0.1
			c-0.02-0.07-0.04-0.13-0.06-0.2c-0.01-0.03-0.02-0.05-0.02-0.08c-0.03-0.09-0.06-0.18-0.1-0.27c-0.01-0.02-0.01-0.03-0.02-0.05
			c-0.03-0.08-0.06-0.15-0.09-0.23c-0.01-0.03-0.03-0.06-0.04-0.1c-0.02-0.06-0.05-0.12-0.08-0.18c-0.02-0.04-0.03-0.07-0.05-0.11
			c-0.02-0.06-0.05-0.11-0.08-0.17c-0.02-0.04-0.03-0.07-0.05-0.11c-0.03-0.05-0.05-0.11-0.08-0.16c-0.02-0.04-0.04-0.07-0.05-0.11
			c-0.03-0.06-0.06-0.11-0.08-0.17c-0.02-0.03-0.03-0.07-0.05-0.1c-0.03-0.06-0.07-0.13-0.1-0.19c-0.01-0.03-0.03-0.05-0.04-0.08
			c-0.05-0.1-0.1-0.19-0.15-0.29c-0.04-0.08-0.08-0.16-0.12-0.24c-0.01-0.03-0.03-0.05-0.04-0.08c-0.03-0.06-0.06-0.13-0.1-0.19
			c-0.02-0.03-0.03-0.07-0.05-0.1c-0.03-0.06-0.06-0.11-0.08-0.17c-0.02-0.04-0.04-0.07-0.05-0.11c-0.03-0.05-0.05-0.11-0.08-0.16
			c-0.02-0.04-0.04-0.07-0.05-0.11c-0.03-0.05-0.05-0.11-0.07-0.16c-0.02-0.04-0.03-0.07-0.05-0.11c-0.03-0.06-0.05-0.11-0.07-0.17
			c-0.01-0.03-0.03-0.07-0.04-0.1c-0.03-0.07-0.06-0.14-0.08-0.21c-0.01-0.02-0.02-0.04-0.02-0.06c-0.03-0.09-0.07-0.18-0.1-0.27
			c-0.01-0.02-0.02-0.05-0.02-0.07c-0.02-0.07-0.04-0.13-0.06-0.2c-0.01-0.03-0.02-0.07-0.03-0.1c-0.02-0.06-0.03-0.12-0.05-0.17
			c-0.01-0.04-0.02-0.07-0.03-0.11c-0.01-0.05-0.02-0.11-0.04-0.16c-0.01-0.04-0.01-0.07-0.02-0.11c-0.01-0.05-0.02-0.11-0.03-0.16
			c-0.01-0.04-0.01-0.07-0.01-0.11c-0.01-0.06-0.01-0.11-0.02-0.17c0-0.04-0.01-0.07-0.01-0.1c0-0.06,0-0.13,0-0.19
			c0-0.03,0-0.06,0-0.08c0-0.02,0-0.04,0-0.06c0-0.1,0.01-0.2,0.02-0.3c0.01-0.05,0.01-0.1,0.02-0.15c0.01-0.04,0.01-0.07,0.02-0.11
			c0.01-0.08,0.03-0.17,0.05-0.25c0.02-0.1,0.05-0.19,0.09-0.29c0.01-0.01,0.01-0.03,0.02-0.04c0.03-0.07,0.05-0.15,0.08-0.22
			c0.01-0.03,0.03-0.07,0.05-0.1c0.02-0.05,0.05-0.11,0.08-0.16c0.02-0.04,0.04-0.08,0.06-0.13c0.02-0.05,0.05-0.09,0.08-0.14
			c0.03-0.06,0.07-0.12,0.1-0.18c0.02-0.04,0.04-0.07,0.07-0.11c0.08-0.12,0.16-0.25,0.25-0.37c0.02-0.03,0.04-0.06,0.06-0.08
			c0.06-0.08,0.12-0.16,0.19-0.24c0.03-0.03,0.05-0.07,0.08-0.1c0.07-0.09,0.15-0.17,0.22-0.26c0.02-0.02,0.03-0.04,0.05-0.05
			c0.15-0.17,0.31-0.34,0.48-0.51c0.01-0.01,0.01-0.01,0.02-0.02c0.17-0.17,0.35-0.34,0.53-0.51c0,0,0,0,0.01-0.01
			c0.18-0.17,0.37-0.34,0.56-0.51c0,0,0.01-0.01,0.01-0.01c0.19-0.17,0.38-0.34,0.57-0.51c0.18-0.16,0.37-0.33,0.55-0.49
			c0.01-0.01,0.02-0.02,0.03-0.03c0.18-0.16,0.35-0.32,0.53-0.48c0.01-0.01,0.03-0.03,0.04-0.04c0.17-0.16,0.33-0.32,0.49-0.48
			c0.01-0.01,0.03-0.03,0.04-0.05c0.16-0.16,0.31-0.32,0.45-0.48c0.01-0.01,0.01-0.01,0.02-0.02c0.02-0.02,0.03-0.04,0.05-0.06
			c0.06-0.07,0.13-0.15,0.19-0.22c0.03-0.03,0.06-0.07,0.08-0.1c0.06-0.08,0.12-0.16,0.18-0.23c0.02-0.02,0.03-0.04,0.05-0.06
			c0-0.01,0.01-0.01,0.01-0.02c0.09-0.12,0.17-0.24,0.25-0.36c0.01-0.01,0.02-0.02,0.02-0.04c0.01-0.02,0.03-0.05,0.04-0.07
			c0.04-0.06,0.08-0.13,0.11-0.19c0.01-0.02,0.03-0.04,0.04-0.06c0.01-0.02,0.02-0.05,0.03-0.07c0.02-0.04,0.04-0.08,0.06-0.12
			c0.01-0.02,0.02-0.05,0.04-0.07c0.02-0.05,0.05-0.1,0.07-0.15c0.01-0.03,0.03-0.07,0.04-0.11c0.01-0.04,0.03-0.07,0.04-0.11
			c0.01-0.04,0.03-0.08,0.04-0.11c0-0.01,0.01-0.03,0.01-0.04c0.01-0.03,0.02-0.07,0.03-0.1c0.02-0.06,0.04-0.12,0.05-0.18
			c0-0.02,0.01-0.03,0.01-0.05c0.01-0.03,0.01-0.05,0.02-0.08c0.02-0.08,0.04-0.17,0.06-0.26c0-0.02,0.01-0.05,0.02-0.07
			c0-0.01,0-0.03,0.01-0.04c0.03-0.17,0.06-0.34,0.08-0.52c0-0.01,0-0.02,0.01-0.04c0-0.02,0-0.04,0.01-0.06
			c0.02-0.17,0.03-0.34,0.05-0.51c0-0.01,0-0.03,0-0.04c0.01-0.17,0.02-0.34,0.02-0.52c0-0.02,0-0.04,0-0.05c0-0.01,0-0.02,0-0.04
			c0-0.16,0-0.33,0-0.5c0-0.04,0-0.07,0-0.11c0-0.15,0-0.31-0.01-0.46c0-0.02,0-0.05,0-0.07c0-0.17-0.01-0.35-0.02-0.52
			c0-0.05,0-0.09-0.01-0.14c-0.01-0.17-0.01-0.33-0.02-0.5c-0.01-0.16-0.01-0.33-0.02-0.49c0-0.04,0-0.09-0.01-0.13
			c-0.01-0.18-0.01-0.35-0.02-0.52c0-0.02,0-0.04,0-0.06c0-0.15-0.01-0.31-0.01-0.46c0-0.04,0-0.08,0-0.11c0-0.17,0-0.33,0-0.5
			c0-0.03,0-0.06,0-0.09c0-0.17,0.01-0.34,0.02-0.51c0-0.02,0-0.03,0-0.05c0.01-0.17,0.03-0.34,0.05-0.51c0-0.03,0.01-0.07,0.01-0.1
			c0.02-0.18,0.05-0.35,0.08-0.52c0.01-0.04,0.01-0.07,0.02-0.11c0.02-0.09,0.04-0.18,0.06-0.27c0.01-0.04,0.02-0.08,0.03-0.13
			c0.02-0.06,0.03-0.12,0.05-0.18c0.01-0.05,0.03-0.1,0.05-0.15c0.01-0.04,0.03-0.07,0.04-0.11c0.02-0.06,0.04-0.12,0.07-0.17
			c0.01-0.03,0.03-0.07,0.04-0.1c0.03-0.06,0.05-0.12,0.08-0.17c0.01-0.03,0.03-0.06,0.04-0.08c0.04-0.08,0.09-0.16,0.14-0.24
			c0.05-0.09,0.11-0.17,0.17-0.25c0.07-0.09,0.14-0.18,0.21-0.26c0.01-0.01,0.02-0.02,0.03-0.03c0.08-0.09,0.17-0.18,0.26-0.26
			c0.03-0.02,0.05-0.05,0.08-0.07c0.1-0.09,0.2-0.17,0.31-0.25c0.01,0,0.01-0.01,0.02-0.01c0.1-0.07,0.21-0.14,0.32-0.21
			c0.03-0.02,0.06-0.04,0.09-0.05c0.12-0.07,0.24-0.13,0.36-0.2c0.17-0.09,0.35-0.16,0.54-0.24c0.04-0.02,0.08-0.03,0.11-0.05
			c0.18-0.07,0.36-0.14,0.54-0.2c0.03-0.01,0.07-0.02,0.1-0.04c0.13-0.04,0.26-0.08,0.39-0.13c0.27-0.09,0.55-0.17,0.83-0.25
			c0.28-0.08,0.56-0.17,0.83-0.25c0.05-0.02,0.1-0.03,0.16-0.05c0.08-0.02,0.15-0.05,0.23-0.08c0.03-0.01,0.07-0.02,0.1-0.03
			c0.18-0.06,0.36-0.13,0.54-0.2c0.04-0.02,0.08-0.03,0.11-0.05c0.18-0.08,0.36-0.15,0.54-0.24c0.14-0.07,0.28-0.15,0.42-0.23
			c0.04-0.03,0.08-0.06,0.13-0.08c0.09-0.06,0.18-0.11,0.26-0.17c0.05-0.04,0.09-0.08,0.14-0.11c0.07-0.06,0.15-0.11,0.22-0.18
			c0.05-0.04,0.09-0.09,0.14-0.14c0.06-0.06,0.12-0.11,0.17-0.17c0.01-0.01,0.02-0.02,0.03-0.04c0.07-0.08,0.14-0.16,0.2-0.25
			c0-0.01,0.01-0.01,0.01-0.02c0.01-0.02,0.03-0.04,0.04-0.06c0.05-0.07,0.1-0.15,0.15-0.22c0.01-0.01,0.02-0.03,0.03-0.04
			c0.01-0.02,0.02-0.04,0.04-0.06c0.05-0.08,0.1-0.16,0.14-0.25c0.01-0.02,0.02-0.04,0.04-0.06c0.01-0.01,0.01-0.02,0.02-0.03
			c0.07-0.13,0.14-0.27,0.2-0.41c0-0.01,0.01-0.02,0.01-0.03c0.02-0.04,0.04-0.09,0.06-0.13c0.02-0.05,0.04-0.1,0.07-0.15
			c0.03-0.06,0.05-0.12,0.07-0.18c0.02-0.05,0.04-0.1,0.06-0.16c0-0.01,0.01-0.02,0.01-0.03c0.01-0.02,0.02-0.04,0.02-0.06
			c0.05-0.14,0.11-0.28,0.16-0.42c0.01-0.03,0.02-0.07,0.04-0.1c0.06-0.16,0.11-0.33,0.17-0.5c0-0.01,0.01-0.02,0.01-0.03
			c0.01-0.02,0.01-0.03,0.01-0.05c0.09-0.27,0.17-0.54,0.26-0.81c0.01-0.03,0.02-0.06,0.03-0.09c0.09-0.28,0.17-0.57,0.26-0.85
			c0.09-0.3,0.18-0.59,0.27-0.88c0.01-0.02,0.01-0.04,0.02-0.06c0.08-0.28,0.17-0.55,0.26-0.82c0.01-0.03,0.02-0.07,0.03-0.1
			c0.06-0.17,0.12-0.35,0.18-0.51c0.01-0.01,0.01-0.03,0.02-0.04c0.06-0.15,0.11-0.31,0.17-0.45c0.02-0.05,0.04-0.09,0.05-0.14
			c0.02-0.05,0.04-0.11,0.07-0.16c0.02-0.06,0.05-0.12,0.08-0.18c0.02-0.05,0.05-0.1,0.07-0.15c0.02-0.05,0.04-0.1,0.07-0.14
			c0.07-0.15,0.14-0.29,0.21-0.43c0.01-0.02,0.02-0.04,0.03-0.06c0.05-0.1,0.11-0.2,0.17-0.29c0.02-0.04,0.04-0.07,0.07-0.11
			c0.05-0.07,0.09-0.14,0.14-0.21c0.02-0.03,0.04-0.06,0.07-0.09c0.08-0.1,0.15-0.2,0.24-0.29c0.04-0.05,0.09-0.09,0.13-0.14
			c0.02-0.02,0.04-0.05,0.07-0.07c0.07-0.06,0.14-0.13,0.21-0.18c0.14-0.11,0.29-0.21,0.44-0.28c0.06-0.03,0.13-0.06,0.19-0.08
			c0.02-0.01,0.04-0.01,0.06-0.02c0.04-0.02,0.09-0.03,0.14-0.04c0.03-0.01,0.06-0.02,0.08-0.02c0.04-0.01,0.09-0.02,0.13-0.03
			c0.03-0.01,0.06-0.01,0.08-0.02c0.04-0.01,0.09-0.01,0.13-0.02c0.03,0,0.05-0.01,0.08-0.01c0.05-0.01,0.1-0.01,0.16-0.01
			c0.02,0,0.04,0,0.06,0c0.03,0,0.06,0,0.09,0c0.05,0,0.1,0,0.15,0c0.03,0,0.07,0,0.1,0.01c0.05,0,0.1,0.01,0.14,0.01
			c0.02,0,0.04,0.01,0.07,0.01c0.09,0.01,0.18,0.02,0.28,0.04c0.02,0,0.05,0.01,0.07,0.01c0.11,0.02,0.21,0.04,0.32,0.07
			c0.02,0.01,0.05,0.01,0.07,0.02c0.08,0.02,0.17,0.04,0.25,0.06c0.03,0.01,0.06,0.02,0.08,0.02c0.1,0.03,0.21,0.06,0.31,0.09
			c0.01,0,0.02,0.01,0.03,0.01c0.1,0.03,0.2,0.06,0.3,0.09c0.03,0.01,0.07,0.02,0.1,0.03c0.09,0.03,0.18,0.06,0.27,0.09
			c0.11,0.04,0.23,0.07,0.34,0.11c0.03,0.01,0.05,0.02,0.08,0.02c0.08,0.03,0.17,0.05,0.25,0.08c0.03,0.01,0.06,0.02,0.09,0.03
			c0.11,0.03,0.21,0.06,0.32,0.09c0.01,0,0.03,0.01,0.04,0.01c0.09,0.02,0.18,0.05,0.27,0.07c0.02,0,0.03,0.01,0.05,0.01
			c0.01,0,0.02,0,0.04,0.01c0.11,0.03,0.23,0.05,0.34,0.07c0.01,0,0.01,0,0.02,0c0.11,0.02,0.21,0.03,0.32,0.05
			c0.02,0,0.03,0.01,0.05,0.01c0.02,0,0.03,0,0.04,0c0.05,0,0.1,0.01,0.14,0.01c0.04,0,0.07,0,0.11,0.01c0.05,0,0.1,0,0.14,0
			c0.03,0,0.05,0,0.08,0c0.01,0,0.02,0,0.03,0c0.03,0,0.06,0,0.1-0.01c0.04,0,0.09-0.01,0.13-0.01c0.03,0,0.06-0.01,0.1-0.01
			c0.03,0,0.05-0.01,0.08-0.01c0.02,0,0.03-0.01,0.05-0.01c0.03-0.01,0.06-0.01,0.09-0.02c0.04-0.01,0.09-0.02,0.13-0.03
			c0.03-0.01,0.06-0.02,0.09-0.03c0.02,0,0.03-0.01,0.05-0.01c0.03-0.01,0.06-0.02,0.09-0.03c0.02-0.01,0.04-0.02,0.06-0.02
			c0.07-0.03,0.14-0.06,0.2-0.09c0.07-0.03,0.13-0.07,0.2-0.11c0.02-0.01,0.04-0.03,0.06-0.04c0.05-0.03,0.09-0.06,0.14-0.09
			c0.02-0.02,0.05-0.03,0.07-0.05c0.04-0.03,0.09-0.07,0.13-0.1c0.02-0.02,0.05-0.04,0.07-0.06c0.05-0.04,0.1-0.09,0.15-0.13
			c0.02-0.02,0.03-0.03,0.05-0.05c0.07-0.06,0.13-0.13,0.2-0.19c0.01-0.01,0.03-0.03,0.04-0.04c0.05-0.05,0.1-0.11,0.16-0.16
			c0.02-0.02,0.05-0.05,0.07-0.08c0.03-0.03,0.05-0.06,0.08-0.08c0.01-0.02,0.03-0.03,0.04-0.05c0.05-0.05,0.09-0.11,0.14-0.16
			c0.03-0.04,0.06-0.07,0.09-0.11c0.05-0.06,0.1-0.12,0.15-0.18c0.03-0.03,0.06-0.07,0.08-0.1c0.06-0.07,0.11-0.15,0.17-0.22
			c0.02-0.03,0.04-0.05,0.06-0.08c0.08-0.1,0.15-0.2,0.23-0.31c0,0,0,0,0-0.01c0,0,0-0.01,0.01-0.01c0.17-0.24,0.35-0.49,0.52-0.74
			c0.01-0.02,0.03-0.04,0.04-0.06c0.17-0.25,0.35-0.51,0.52-0.76c0.17-0.25,0.34-0.49,0.51-0.74c0.01-0.02,0.03-0.04,0.04-0.06
			c0.17-0.25,0.34-0.49,0.52-0.73c0.03-0.03,0.05-0.07,0.08-0.1c0.05-0.06,0.09-0.13,0.14-0.19c0.03-0.04,0.06-0.08,0.09-0.12
			c0.04-0.06,0.09-0.12,0.13-0.17c0.03-0.04,0.06-0.08,0.09-0.12c0.04-0.05,0.09-0.11,0.13-0.16c0.03-0.04,0.06-0.08,0.1-0.12
			c0.04-0.05,0.09-0.1,0.13-0.15c0.04-0.04,0.07-0.08,0.11-0.12c0.02-0.02,0.04-0.05,0.07-0.07c0.05-0.05,0.09-0.1,0.14-0.14
			c0.02-0.02,0.04-0.04,0.06-0.06c0.06-0.06,0.12-0.12,0.18-0.17c0,0,0.01-0.01,0.02-0.01c0.06-0.06,0.13-0.12,0.19-0.17
			c0.02-0.02,0.04-0.03,0.06-0.05c0.05-0.04,0.09-0.07,0.14-0.11c0.02-0.02,0.04-0.03,0.07-0.05c0.04-0.03,0.09-0.06,0.14-0.09
			c0.02-0.01,0.04-0.03,0.06-0.04c0.06-0.04,0.13-0.08,0.19-0.11l-8.25-3.37C190.32,96.52,190.25,96.56,190.19,96.6z"/>
		<path class="st7" d="M198.63,99.86c0.15-0.07,0.3-0.13,0.45-0.16c2.46-0.53,3.92,4.89,6.21,5.09c0.47,0.04,1.01-0.13,1.58-0.42
			c0.77-0.38,1.61-0.98,2.45-1.57c0.84-0.59,1.68-1.19,2.45-1.57c0.75-0.38,1.44-0.55,1.98-0.31c2.08,0.9,1.35,7.3,3.09,8.85
			c1.73,1.55,6.62-1.15,7.94,1c1.3,2.11-1.48,8.22-0.65,10.87c0.8,2.56,5.54,2.68,5.83,5.7c0.29,3.02-4,7.64-4.25,10.73
			c-0.26,3.19,3.38,6.1,2.59,9.25c-0.81,3.21-5.74,5.41-7.03,8.46c-1.3,3.07,0.54,8.19-1.18,10.98c-0.45,0.73-1.11,1.23-1.86,1.6
			c-0.77,0.38-1.64,0.64-2.51,0.9c-0.87,0.26-1.75,0.52-2.52,0.9c-0.58,0.29-1.1,0.64-1.51,1.12c-2.05,2.35-2.38,8.67-4.71,10.53
			c-0.14,0.11-0.29,0.21-0.44,0.28c-2.25,1.12-5.34-1.76-7.67-0.6c-2.33,1.16-4.62,6.73-6.86,7.84c-0.15,0.08-0.3,0.13-0.45,0.16
			c-2.47,0.53-3.92-4.89-6.21-5.09c-0.47-0.04-1.01,0.13-1.58,0.42c-0.77,0.38-1.61,0.98-2.45,1.57c-0.84,0.59-1.68,1.19-2.45,1.57
			c-0.75,0.38-1.44,0.55-1.98,0.31c-2.08-0.9-1.35-7.3-3.09-8.85c-1.73-1.55-6.62,1.15-7.94-1c-1.3-2.11,1.48-8.22,0.65-10.87
			c-0.8-2.56-5.54-2.68-5.83-5.7c-0.29-3.02,4-7.63,4.25-10.73c0.26-3.19-3.38-6.1-2.59-9.25c0.81-3.21,5.74-5.41,7.03-8.46
			c1.3-3.07-0.54-8.19,1.18-10.98c0.45-0.73,1.1-1.23,1.86-1.6c0.77-0.38,1.64-0.64,2.51-0.9c0.87-0.26,1.74-0.52,2.51-0.9
			c0.58-0.29,1.1-0.65,1.52-1.13c2.05-2.35,2.37-8.67,4.71-10.53c0.14-0.11,0.29-0.21,0.44-0.28c2.24-1.12,5.34,1.76,7.67,0.6
			C194.1,106.54,196.39,100.98,198.63,99.86z"/>
		<path class="st8" d="M189.16,141.75c0,0,0.01,0,0.01,0c0.09-0.02,0.18-0.03,0.26-0.05c0.03,0,0.05-0.01,0.08-0.01
			c0.06-0.01,0.13-0.02,0.19-0.02c0.03,0,0.06-0.01,0.08-0.01c0.04,0,0.08,0,0.12-0.01c0.03,0,0.06,0,0.09,0c0.04,0,0.08,0,0.12,0
			c0.03,0,0.06,0,0.09,0c0.03,0,0.06,0.01,0.09,0.01c0.03,0,0.07,0.01,0.1,0.01c0.03,0,0.06,0.01,0.09,0.01
			c0.03,0,0.06,0.01,0.09,0.01c0.1,0.02,0.2,0.04,0.3,0.07c0.02,0,0.03,0.01,0.05,0.01c0.09,0.03,0.18,0.06,0.27,0.1
			c0.02,0.01,0.03,0.01,0.05,0.02c0.09,0.04,0.17,0.08,0.25,0.13c0.04,0.03,0.09,0.05,0.13,0.08l0,0l0,0l-2.72-1.81
			c-0.04-0.03-0.08-0.05-0.12-0.07c0,0-0.01,0-0.01-0.01c-0.08-0.05-0.16-0.09-0.25-0.13c-0.01,0-0.02-0.01-0.02-0.01
			c-0.01,0-0.01-0.01-0.02-0.01c-0.09-0.04-0.18-0.07-0.27-0.1c-0.01,0-0.01-0.01-0.02-0.01c-0.01,0-0.02,0-0.03-0.01
			c-0.1-0.03-0.2-0.05-0.3-0.07c0,0-0.01,0-0.01,0c-0.02,0-0.05-0.01-0.08-0.01c-0.03,0-0.06-0.01-0.09-0.01
			c-0.03,0-0.07-0.01-0.1-0.01c-0.03,0-0.06-0.01-0.09-0.01c-0.01,0-0.01,0-0.02,0c-0.02,0-0.04,0-0.07,0c-0.04,0-0.08,0-0.12,0
			c-0.03,0-0.06,0-0.09,0c-0.04,0-0.08,0-0.12,0.01c-0.01,0-0.02,0-0.04,0c-0.02,0-0.03,0-0.05,0.01c-0.06,0.01-0.13,0.01-0.19,0.02
			c-0.03,0-0.05,0.01-0.08,0.01c-0.09,0.01-0.17,0.03-0.26,0.05c0,0,0,0,0,0c0,0-0.01,0-0.01,0c-0.09,0.02-0.19,0.05-0.29,0.07
			c-0.03,0.01-0.05,0.01-0.08,0.02c-0.1,0.03-0.2,0.06-0.31,0.1c-0.1,0.04-0.21,0.08-0.31,0.12c-0.01,0-0.02,0.01-0.03,0.01
			c-0.03,0.01-0.07,0.03-0.1,0.05c-0.04,0.02-0.08,0.04-0.12,0.06c-0.05,0.02-0.09,0.05-0.14,0.07c-0.04,0.02-0.08,0.04-0.12,0.06
			c-0.05,0.02-0.09,0.05-0.14,0.08c-0.04,0.02-0.08,0.04-0.12,0.07c-0.05,0.03-0.09,0.06-0.14,0.08c-0.04,0.02-0.08,0.05-0.11,0.07
			c-0.01,0-0.01,0.01-0.02,0.01c-0.01,0.01-0.02,0.01-0.03,0.02c-0.16,0.1-0.31,0.21-0.47,0.33c-0.01,0.01-0.03,0.02-0.04,0.03
			c-0.15,0.12-0.3,0.24-0.45,0.36c-0.01,0-0.01,0.01-0.02,0.01c-0.02,0.02-0.04,0.04-0.06,0.06c-0.06,0.05-0.12,0.11-0.18,0.16
			c-0.03,0.03-0.06,0.06-0.09,0.09c-0.06,0.05-0.11,0.11-0.17,0.16c-0.02,0.02-0.04,0.04-0.06,0.06c-0.01,0.01-0.01,0.02-0.02,0.02
			c-0.13,0.13-0.26,0.27-0.38,0.42c-0.01,0.01-0.02,0.02-0.03,0.03c-0.01,0.01-0.02,0.02-0.02,0.03c-0.11,0.13-0.22,0.26-0.32,0.39
			c-0.01,0.01-0.02,0.02-0.03,0.03c-0.01,0.01-0.02,0.03-0.03,0.04c-0.1,0.13-0.19,0.26-0.29,0.39c0,0-0.01,0.01-0.01,0.01
			c-0.01,0.01-0.01,0.02-0.02,0.03c-0.08,0.12-0.16,0.24-0.24,0.36c-0.01,0.02-0.02,0.03-0.03,0.05c-0.01,0.01-0.01,0.02-0.02,0.03
			c-0.08,0.13-0.16,0.26-0.23,0.39c-0.01,0.01-0.01,0.02-0.02,0.03c-0.01,0.02-0.02,0.03-0.03,0.05c-0.07,0.13-0.14,0.25-0.21,0.38
			c0,0.01-0.01,0.02-0.01,0.03c0,0,0,0.01,0,0.01c-0.07,0.14-0.14,0.28-0.2,0.43c-0.01,0.02-0.02,0.03-0.02,0.05
			c-0.01,0.01-0.01,0.03-0.02,0.04c-0.07,0.15-0.13,0.3-0.19,0.45c0,0.01-0.01,0.02-0.01,0.03c-0.01,0.01-0.01,0.03-0.01,0.04
			c-0.06,0.17-0.12,0.35-0.18,0.52c0,0.01-0.01,0.02-0.01,0.03c-0.01,0.03-0.01,0.05-0.02,0.08c-0.02,0.08-0.04,0.15-0.06,0.23
			c-0.01,0.04-0.02,0.08-0.03,0.12c-0.02,0.08-0.04,0.16-0.05,0.23c-0.01,0.03-0.01,0.05-0.02,0.08c0,0.01,0,0.02-0.01,0.04
			c-0.01,0.07-0.03,0.15-0.04,0.22c-0.01,0.03-0.01,0.07-0.02,0.11c-0.02,0.11-0.03,0.22-0.04,0.32c-0.21,1.79,0.32,3.14,1.31,3.8
			l2.72,1.81c-0.99-0.66-1.52-2.01-1.31-3.8c0.01-0.11,0.03-0.21,0.04-0.32c0.01-0.04,0.01-0.07,0.02-0.11
			c0.01-0.07,0.03-0.15,0.04-0.22c0.01-0.04,0.02-0.08,0.02-0.11c0.02-0.08,0.03-0.16,0.05-0.23c0.01-0.04,0.02-0.08,0.03-0.12
			c0.02-0.08,0.04-0.15,0.06-0.23c0.01-0.03,0.02-0.07,0.03-0.1c0.05-0.17,0.11-0.35,0.18-0.52c0.01-0.02,0.02-0.05,0.03-0.07
			c0.06-0.15,0.12-0.3,0.19-0.45c0.01-0.03,0.03-0.06,0.04-0.09c0.06-0.14,0.13-0.29,0.2-0.43c0.01-0.01,0.01-0.02,0.02-0.04
			c0.07-0.13,0.13-0.26,0.21-0.38c0.02-0.03,0.03-0.05,0.05-0.08c0.07-0.13,0.15-0.26,0.23-0.39c0.02-0.03,0.03-0.05,0.05-0.07
			c0.08-0.12,0.16-0.24,0.24-0.36c0.01-0.01,0.02-0.03,0.03-0.04c0.09-0.13,0.19-0.26,0.29-0.39c0.02-0.02,0.04-0.05,0.06-0.07
			c0.1-0.13,0.21-0.26,0.32-0.39c0.02-0.02,0.03-0.04,0.05-0.06c0.12-0.14,0.25-0.28,0.38-0.41c0.03-0.03,0.05-0.05,0.08-0.08
			c0.05-0.05,0.11-0.11,0.17-0.16c0.03-0.03,0.06-0.06,0.1-0.09c0.06-0.05,0.12-0.11,0.18-0.16c0.03-0.02,0.05-0.05,0.08-0.07
			c0.15-0.13,0.3-0.25,0.45-0.36c0.01-0.01,0.03-0.02,0.04-0.03c0.15-0.12,0.31-0.22,0.47-0.33c0.02-0.01,0.03-0.02,0.05-0.03
			c0.04-0.02,0.07-0.05,0.11-0.07c0.05-0.03,0.09-0.06,0.14-0.08c0.04-0.02,0.08-0.04,0.12-0.07c0.05-0.03,0.09-0.05,0.14-0.08
			c0.04-0.02,0.08-0.04,0.12-0.06c0.05-0.02,0.09-0.05,0.14-0.07c0.04-0.02,0.08-0.04,0.12-0.05c0.04-0.02,0.09-0.04,0.13-0.06
			c0.1-0.04,0.21-0.09,0.31-0.12c0.1-0.04,0.21-0.07,0.31-0.1c0.03-0.01,0.05-0.02,0.08-0.02
			C188.97,141.8,189.07,141.77,189.16,141.75z"/>
		<path class="st8" d="M212.86,147.94c0.01-0.05,0.02-0.1,0.03-0.15c0.01-0.05,0.02-0.09,0.03-0.14c0.01-0.05,0.02-0.1,0.03-0.15
			c0.01-0.04,0.02-0.08,0.02-0.12c0.02-0.14,0.04-0.27,0.06-0.41c0.02-0.14,0.03-0.28,0.03-0.41c0.01-0.18,0.01-0.36,0.01-0.53
			c0-0.06-0.01-0.11-0.01-0.16c0-0.05-0.01-0.1-0.01-0.15c0-0.02,0-0.03-0.01-0.05c-0.01-0.08-0.02-0.16-0.03-0.24
			c-0.01-0.06-0.02-0.13-0.03-0.19c-0.01-0.03-0.01-0.06-0.02-0.08c-0.01-0.04-0.02-0.08-0.03-0.12c-0.01-0.05-0.02-0.09-0.03-0.14
			c0-0.01-0.01-0.02-0.01-0.02c-0.05-0.16-0.1-0.31-0.16-0.46c-0.01-0.03-0.03-0.07-0.05-0.1c-0.02-0.04-0.04-0.08-0.06-0.12
			c-0.01-0.02-0.02-0.04-0.04-0.06c-0.03-0.05-0.05-0.1-0.08-0.15c-0.01-0.01-0.02-0.03-0.03-0.04c-0.12-0.18-0.26-0.35-0.41-0.49
			c-0.02-0.02-0.04-0.03-0.05-0.05c-0.04-0.03-0.08-0.07-0.12-0.1c-0.02-0.02-0.05-0.03-0.07-0.05c-0.04-0.03-0.07-0.06-0.11-0.08
			l-1.43-0.95l-1.29-0.86c0.03,0.02,0.06,0.05,0.09,0.07c0.03,0.02,0.06,0.04,0.09,0.06c0.03,0.02,0.06,0.05,0.09,0.08
			c0.03,0.02,0.05,0.05,0.08,0.07c0.04,0.03,0.07,0.07,0.11,0.11c0.02,0.02,0.04,0.03,0.05,0.05c0.03,0.04,0.07,0.08,0.1,0.12
			c0.02,0.02,0.03,0.04,0.05,0.06c0.03,0.04,0.06,0.09,0.09,0.14c0.01,0.02,0.03,0.04,0.04,0.06c0.03,0.05,0.06,0.1,0.08,0.15
			c0.01,0.02,0.02,0.04,0.04,0.06c0.02,0.04,0.04,0.08,0.06,0.12c0.02,0.03,0.03,0.06,0.05,0.1c0.06,0.14,0.12,0.3,0.16,0.46
			c0,0.01,0.01,0.02,0.01,0.02c0.01,0.05,0.02,0.09,0.03,0.14c0.01,0.04,0.02,0.08,0.03,0.12c0.01,0.03,0.01,0.06,0.02,0.08
			c0.01,0.06,0.02,0.13,0.03,0.19c0.01,0.08,0.02,0.16,0.03,0.24c0,0.02,0,0.03,0.01,0.05c0,0.05,0.01,0.1,0.01,0.15
			c0,0.05,0.01,0.11,0.01,0.16c0.01,0.17,0,0.35-0.01,0.53c-0.01,0.14-0.02,0.27-0.03,0.41c-0.02,0.14-0.04,0.27-0.06,0.41
			c-0.01,0.04-0.01,0.08-0.02,0.12c-0.02,0.1-0.04,0.19-0.06,0.29c-0.01,0.05-0.02,0.1-0.03,0.15c-0.02,0.1-0.05,0.2-0.08,0.3
			c-0.01,0.04-0.02,0.08-0.03,0.12c-0.01,0.04-0.03,0.09-0.04,0.13c-0.04,0.14-0.09,0.28-0.14,0.42c-0.02,0.06-0.05,0.12-0.07,0.18
			c-0.04,0.1-0.08,0.21-0.13,0.31c-0.03,0.06-0.05,0.13-0.08,0.19c-0.04,0.09-0.09,0.18-0.13,0.27c-0.03,0.06-0.06,0.13-0.09,0.19
			c-0.04,0.09-0.09,0.17-0.14,0.26c-0.03,0.06-0.07,0.13-0.1,0.19c-0.03,0.06-0.07,0.12-0.1,0.17c-0.06,0.11-0.13,0.21-0.2,0.32
			c-0.04,0.06-0.07,0.11-0.11,0.17c-0.09,0.13-0.17,0.25-0.26,0.37c-0.05,0.07-0.1,0.14-0.15,0.21c-0.02,0.02-0.04,0.05-0.06,0.07
			c-0.1,0.13-0.21,0.26-0.32,0.39c-0.02,0.02-0.03,0.04-0.05,0.06c-0.12,0.14-0.25,0.28-0.38,0.42c-0.03,0.03-0.05,0.05-0.08,0.08
			c-0.06,0.06-0.11,0.11-0.17,0.16c-0.03,0.03-0.06,0.06-0.09,0.09c-0.06,0.05-0.12,0.11-0.18,0.16c-0.03,0.02-0.05,0.05-0.08,0.07
			c-0.15,0.13-0.3,0.25-0.45,0.36c-0.01,0.01-0.03,0.02-0.04,0.03c-0.15,0.12-0.31,0.22-0.47,0.33c-0.02,0.01-0.03,0.02-0.05,0.03
			c-0.04,0.02-0.08,0.05-0.11,0.07c-0.05,0.03-0.09,0.06-0.14,0.08c-0.04,0.02-0.08,0.04-0.12,0.07c-0.05,0.03-0.09,0.05-0.14,0.08
			c-0.04,0.02-0.08,0.04-0.12,0.06c-0.05,0.02-0.09,0.05-0.14,0.07c-0.04,0.02-0.08,0.04-0.12,0.06c-0.04,0.02-0.09,0.04-0.13,0.06
			c-0.1,0.04-0.21,0.09-0.31,0.12c-0.1,0.04-0.21,0.07-0.31,0.1c-0.03,0.01-0.05,0.02-0.08,0.02c-0.1,0.03-0.19,0.05-0.29,0.07
			c0,0-0.01,0-0.01,0c-0.09,0.02-0.18,0.03-0.26,0.05c-0.03,0-0.05,0.01-0.08,0.01c-0.06,0.01-0.13,0.02-0.19,0.02
			c-0.03,0-0.06,0.01-0.08,0.01c-0.04,0-0.08,0-0.12,0.01c-0.03,0-0.06,0-0.09,0c-0.04,0-0.08,0-0.13,0c-0.03,0-0.06,0-0.09,0
			c-0.03,0-0.06,0-0.09-0.01c-0.03,0-0.07-0.01-0.1-0.01c-0.03,0-0.06-0.01-0.09-0.01c-0.03,0-0.06-0.01-0.09-0.01
			c-0.1-0.02-0.2-0.04-0.3-0.07c-0.02,0-0.03-0.01-0.05-0.01c-0.09-0.03-0.18-0.06-0.27-0.1c-0.02-0.01-0.03-0.01-0.05-0.02
			c-0.09-0.04-0.17-0.08-0.25-0.13c-0.04-0.03-0.09-0.05-0.13-0.08l2.72,1.81c0.04,0.03,0.08,0.05,0.12,0.07c0,0,0.01,0,0.01,0.01
			c0.08,0.05,0.17,0.09,0.25,0.13c0.01,0,0.02,0.01,0.02,0.01c0.01,0,0.01,0.01,0.02,0.01c0.09,0.04,0.18,0.07,0.27,0.1
			c0.01,0,0.01,0.01,0.02,0.01c0.01,0,0.02,0,0.03,0.01c0.1,0.03,0.2,0.05,0.3,0.07c0,0,0.01,0,0.01,0c0.02,0,0.05,0.01,0.08,0.01
			c0.03,0,0.06,0.01,0.09,0.01c0.03,0,0.07,0.01,0.1,0.01c0.03,0,0.06,0.01,0.09,0.01c0.01,0,0.01,0,0.02,0c0.02,0,0.04,0,0.07,0
			c0.04,0,0.08,0,0.13,0c0.03,0,0.06,0,0.09,0c0.04,0,0.08,0,0.12-0.01c0.01,0,0.02,0,0.04,0c0.02,0,0.03,0,0.05-0.01
			c0.06-0.01,0.12-0.01,0.19-0.02c0.03,0,0.05-0.01,0.08-0.01c0.09-0.01,0.17-0.03,0.26-0.05c0,0,0,0,0,0c0,0,0.01,0,0.01,0
			c0.09-0.02,0.19-0.05,0.29-0.07c0.03-0.01,0.05-0.01,0.08-0.02c0.1-0.03,0.2-0.06,0.31-0.1c0.1-0.04,0.21-0.08,0.31-0.12
			c0.01,0,0.02-0.01,0.03-0.01c0.03-0.01,0.07-0.03,0.1-0.05c0.04-0.02,0.08-0.04,0.12-0.06c0.05-0.02,0.09-0.05,0.14-0.07
			c0.04-0.02,0.08-0.04,0.12-0.06c0.05-0.02,0.09-0.05,0.14-0.08c0.04-0.02,0.08-0.04,0.12-0.07c0.05-0.03,0.09-0.06,0.14-0.08
			c0.04-0.02,0.08-0.05,0.11-0.07c0.01,0,0.01-0.01,0.02-0.01c0.01-0.01,0.02-0.01,0.03-0.02c0.16-0.1,0.31-0.21,0.47-0.33
			c0.01-0.01,0.03-0.02,0.04-0.03c0.15-0.12,0.3-0.24,0.45-0.36c0.01-0.01,0.01-0.01,0.02-0.01c0.02-0.02,0.04-0.04,0.06-0.06
			c0.06-0.05,0.12-0.11,0.18-0.16c0.03-0.03,0.06-0.06,0.09-0.09c0.06-0.05,0.11-0.11,0.17-0.16c0.02-0.02,0.04-0.04,0.06-0.06
			c0.01-0.01,0.01-0.02,0.02-0.02c0.13-0.13,0.26-0.27,0.38-0.42c0.01-0.01,0.02-0.02,0.03-0.03c0.01-0.01,0.01-0.02,0.02-0.03
			c0.11-0.13,0.22-0.26,0.32-0.39c0.01-0.01,0.02-0.02,0.03-0.03c0.01-0.01,0.02-0.03,0.03-0.04c0.03-0.03,0.05-0.07,0.08-0.1
			c0.03-0.03,0.05-0.07,0.07-0.1c0.05-0.06,0.09-0.12,0.14-0.19c0.04-0.06,0.08-0.12,0.12-0.19c0.02-0.03,0.05-0.06,0.07-0.09
			c0,0,0,0,0,0c0,0,0,0,0,0c0.02-0.02,0.03-0.05,0.04-0.07c0.02-0.03,0.04-0.06,0.06-0.09c0.05-0.08,0.09-0.15,0.14-0.23
			c0.03-0.04,0.05-0.08,0.08-0.13c0,0,0,0,0,0c0,0,0,0,0,0c0.01-0.02,0.02-0.03,0.03-0.05c0.01-0.01,0.02-0.03,0.03-0.04
			c0.03-0.05,0.05-0.1,0.08-0.15c0.05-0.09,0.09-0.17,0.14-0.26c0.01-0.02,0.02-0.04,0.03-0.06c0.02-0.04,0.04-0.09,0.06-0.13
			c0.04-0.09,0.09-0.18,0.13-0.27c0.01-0.03,0.03-0.05,0.04-0.08c0.02-0.04,0.03-0.07,0.05-0.11c0.04-0.1,0.09-0.2,0.13-0.31
			c0.01-0.03,0.03-0.07,0.04-0.1c0.01-0.03,0.02-0.05,0.03-0.08c0.05-0.14,0.1-0.28,0.14-0.42c0.01-0.03,0.02-0.06,0.03-0.09
			c0-0.01,0.01-0.02,0.01-0.04c0.01-0.04,0.02-0.08,0.03-0.12C212.81,148.14,212.84,148.04,212.86,147.94z"/>
		<path class="st8" d="M202.88,150.27c0.01-0.07,0.03-0.15,0.04-0.22c0.01-0.04,0.02-0.08,0.02-0.11c0.02-0.08,0.03-0.16,0.05-0.23
			c0.01-0.04,0.02-0.08,0.03-0.12c0.02-0.08,0.04-0.15,0.06-0.23c0.01-0.03,0.02-0.07,0.03-0.1c0.05-0.18,0.11-0.35,0.18-0.52
			c0.01-0.02,0.02-0.05,0.03-0.07c0.06-0.15,0.12-0.3,0.19-0.45c0.01-0.03,0.03-0.06,0.04-0.09c0.06-0.14,0.13-0.29,0.2-0.43
			c0.01-0.01,0.01-0.02,0.02-0.04c0.07-0.13,0.13-0.26,0.21-0.38c0.02-0.03,0.03-0.05,0.05-0.08c0.08-0.13,0.15-0.26,0.23-0.39
			c0.02-0.03,0.03-0.05,0.05-0.07c0.08-0.12,0.16-0.24,0.24-0.36c0.01-0.01,0.02-0.03,0.03-0.04c0.09-0.13,0.19-0.26,0.29-0.39
			c0.02-0.02,0.04-0.05,0.06-0.07c0.1-0.13,0.21-0.26,0.32-0.39c0.02-0.02,0.03-0.04,0.05-0.06c0.12-0.14,0.25-0.28,0.38-0.42
			c0.03-0.03,0.05-0.05,0.08-0.08c0.06-0.06,0.11-0.11,0.17-0.16c0.03-0.03,0.06-0.06,0.09-0.09c0.06-0.05,0.12-0.11,0.18-0.16
			c0.03-0.02,0.05-0.05,0.08-0.07c0.15-0.13,0.3-0.25,0.45-0.36c0.01-0.01,0.03-0.02,0.04-0.03c0.15-0.12,0.31-0.22,0.47-0.33
			c0.02-0.01,0.03-0.02,0.05-0.03c0.04-0.02,0.08-0.05,0.11-0.07c0.05-0.03,0.09-0.06,0.14-0.08c0.04-0.02,0.08-0.04,0.12-0.07
			c0.05-0.03,0.09-0.05,0.14-0.08c0.04-0.02,0.08-0.04,0.12-0.06c0.05-0.02,0.09-0.05,0.14-0.07c0.04-0.02,0.08-0.04,0.12-0.06
			c0.04-0.02,0.09-0.04,0.13-0.06c0.1-0.04,0.21-0.09,0.31-0.12c0.1-0.04,0.21-0.07,0.31-0.1c0.03-0.01,0.05-0.02,0.08-0.02
			c0.1-0.03,0.19-0.05,0.29-0.07c0,0,0.01,0,0.01,0c0.09-0.02,0.18-0.03,0.26-0.05c0.03,0,0.05-0.01,0.08-0.01
			c0.06-0.01,0.13-0.02,0.19-0.02c0.03,0,0.06,0,0.08-0.01c0.04,0,0.08,0,0.12-0.01c0.03,0,0.06,0,0.09,0c0.04,0,0.08,0,0.12,0
			c0.03,0,0.06,0,0.09,0c0.03,0,0.06,0.01,0.09,0.01c0.03,0,0.07,0.01,0.1,0.01c0.03,0,0.06,0.01,0.09,0.01
			c0.03,0,0.06,0.01,0.09,0.01c0.1,0.02,0.2,0.04,0.3,0.07c0.02,0,0.03,0.01,0.05,0.01c0.09,0.03,0.18,0.06,0.27,0.1
			c0.01,0.01,0.03,0.01,0.04,0.02c0.09,0.04,0.17,0.08,0.25,0.13c0.04,0.03,0.09,0.05,0.13,0.08l-2.72-1.81
			c-0.04-0.03-0.08-0.05-0.12-0.07c0,0-0.01,0-0.01-0.01c-0.08-0.05-0.17-0.09-0.25-0.13c-0.01,0-0.02-0.01-0.02-0.01
			c-0.01,0-0.01,0-0.02-0.01c-0.09-0.04-0.18-0.07-0.27-0.1c-0.01,0-0.01-0.01-0.02-0.01c-0.01,0-0.02,0-0.03-0.01
			c-0.1-0.03-0.2-0.05-0.3-0.07c0,0-0.01,0-0.01,0c-0.02,0-0.05-0.01-0.08-0.01c-0.03,0-0.06-0.01-0.09-0.01
			c-0.03,0-0.07-0.01-0.1-0.01c-0.03,0-0.06-0.01-0.09-0.01c-0.01,0-0.01,0-0.02,0c-0.02,0-0.04,0-0.07,0c-0.04,0-0.08,0-0.12,0
			c-0.03,0-0.06,0-0.09,0c-0.04,0-0.08,0-0.12,0.01c-0.01,0-0.02,0-0.04,0c-0.02,0-0.03,0-0.05,0.01c-0.06,0.01-0.13,0.01-0.19,0.02
			c-0.03,0-0.05,0.01-0.08,0.01c-0.09,0.01-0.17,0.03-0.26,0.05c0,0,0,0,0,0c0,0-0.01,0-0.01,0c-0.09,0.02-0.19,0.05-0.29,0.07
			c-0.03,0.01-0.05,0.01-0.08,0.02c-0.1,0.03-0.2,0.06-0.31,0.1c-0.1,0.04-0.21,0.08-0.31,0.12c-0.01,0-0.02,0.01-0.03,0.01
			c-0.03,0.01-0.07,0.03-0.1,0.05c-0.04,0.02-0.08,0.04-0.12,0.06c-0.05,0.02-0.09,0.05-0.14,0.07c-0.04,0.02-0.08,0.04-0.12,0.06
			c-0.05,0.02-0.09,0.05-0.14,0.08c-0.04,0.02-0.08,0.04-0.12,0.07c-0.05,0.03-0.09,0.06-0.14,0.08c-0.04,0.02-0.08,0.05-0.11,0.07
			c-0.01,0-0.01,0.01-0.02,0.01c-0.01,0.01-0.02,0.01-0.03,0.02c-0.16,0.1-0.31,0.21-0.47,0.33c-0.01,0.01-0.03,0.02-0.04,0.03
			c-0.15,0.12-0.3,0.24-0.45,0.36c-0.01,0.01-0.01,0.01-0.02,0.01c-0.02,0.02-0.04,0.04-0.06,0.06c-0.06,0.05-0.12,0.11-0.18,0.16
			c-0.03,0.03-0.06,0.06-0.09,0.09c-0.06,0.05-0.11,0.11-0.17,0.16c-0.02,0.02-0.04,0.04-0.06,0.06c-0.01,0.01-0.01,0.02-0.02,0.02
			c-0.13,0.13-0.26,0.27-0.38,0.42c-0.01,0.01-0.02,0.02-0.03,0.03c-0.01,0.01-0.02,0.02-0.02,0.03c-0.11,0.13-0.22,0.26-0.32,0.39
			c-0.01,0.01-0.02,0.02-0.03,0.03c-0.01,0.01-0.02,0.03-0.03,0.04c-0.1,0.13-0.19,0.26-0.29,0.39c0,0,0,0.01-0.01,0.01
			c-0.01,0.01-0.01,0.02-0.02,0.03c-0.08,0.12-0.16,0.24-0.24,0.36c-0.01,0.02-0.02,0.03-0.03,0.05c-0.01,0.01-0.01,0.02-0.02,0.03
			c-0.08,0.13-0.16,0.26-0.23,0.39c-0.01,0.01-0.01,0.02-0.02,0.03c-0.01,0.02-0.02,0.03-0.03,0.05c-0.07,0.13-0.14,0.25-0.21,0.38
			c0,0.01-0.01,0.02-0.02,0.03c0,0,0,0.01,0,0.01c-0.07,0.14-0.14,0.28-0.2,0.43c-0.01,0.02-0.02,0.03-0.02,0.05
			c-0.01,0.01-0.01,0.03-0.02,0.04c-0.07,0.15-0.13,0.3-0.19,0.45c0,0.01-0.01,0.02-0.01,0.03c-0.01,0.01-0.01,0.03-0.01,0.04
			c-0.06,0.17-0.12,0.35-0.18,0.52c0,0.01-0.01,0.02-0.01,0.03c-0.01,0.03-0.01,0.05-0.02,0.08c-0.02,0.08-0.04,0.16-0.07,0.23
			c-0.01,0.04-0.02,0.08-0.03,0.12c-0.02,0.08-0.04,0.16-0.05,0.24c-0.01,0.03-0.01,0.05-0.02,0.08c0,0.01,0,0.02-0.01,0.03
			c-0.01,0.07-0.03,0.15-0.04,0.22c-0.01,0.04-0.01,0.07-0.02,0.11c-0.02,0.11-0.03,0.22-0.04,0.32c-0.21,1.79,0.32,3.13,1.31,3.8
			l2.72,1.81c-0.99-0.66-1.52-2-1.31-3.8c0.01-0.11,0.03-0.21,0.04-0.32C202.87,150.34,202.87,150.3,202.88,150.27z"/>
		<path class="st8" d="M200.55,150.93c0.02-0.11,0.04-0.21,0.06-0.32c0.01-0.06,0.02-0.11,0.04-0.17c0.02-0.11,0.05-0.23,0.08-0.34
			c0.01-0.06,0.03-0.12,0.05-0.18c0.03-0.11,0.06-0.23,0.1-0.34c0.02-0.06,0.03-0.12,0.05-0.18c0.02-0.07,0.05-0.14,0.07-0.21
			c0.02-0.08,0.05-0.15,0.08-0.23c0.02-0.07,0.05-0.14,0.08-0.21c0.03-0.08,0.06-0.15,0.09-0.23c0.02-0.06,0.04-0.11,0.07-0.17
			c0.03-0.08,0.07-0.16,0.1-0.25c0.02-0.06,0.05-0.11,0.07-0.17c0.02-0.06,0.05-0.11,0.08-0.17c0.09-0.21,0.19-0.42,0.3-0.63
			c0.01-0.02,0.02-0.04,0.03-0.05c0.1-0.19,0.2-0.37,0.3-0.56c0.02-0.04,0.04-0.08,0.07-0.12c0.11-0.19,0.22-0.38,0.34-0.57
			c0.02-0.04,0.05-0.07,0.07-0.11c0.11-0.18,0.23-0.35,0.35-0.53c0.01-0.02,0.03-0.04,0.04-0.06c0.14-0.19,0.28-0.38,0.42-0.57
			c0.03-0.04,0.06-0.07,0.08-0.11c0.15-0.19,0.31-0.38,0.47-0.57c0.03-0.03,0.05-0.06,0.08-0.09c0.18-0.21,0.37-0.41,0.56-0.61
			c0.04-0.04,0.08-0.08,0.11-0.12c0.08-0.08,0.16-0.16,0.24-0.24c0.05-0.04,0.09-0.09,0.14-0.13c0.08-0.08,0.17-0.16,0.26-0.23
			c0.04-0.04,0.09-0.08,0.13-0.12c0.06-0.05,0.12-0.1,0.18-0.16c0.06-0.05,0.11-0.09,0.17-0.14c0.06-0.05,0.13-0.1,0.19-0.15
			c0.06-0.04,0.11-0.09,0.17-0.13c0.06-0.05,0.13-0.09,0.19-0.14c0.06-0.04,0.12-0.08,0.18-0.13c0.06-0.04,0.13-0.09,0.19-0.13
			c0.06-0.04,0.12-0.08,0.18-0.12c0.06-0.04,0.11-0.07,0.17-0.1c0.07-0.04,0.13-0.08,0.2-0.12c0.06-0.03,0.11-0.06,0.17-0.1
			c0.07-0.04,0.13-0.08,0.2-0.11c0.06-0.03,0.12-0.06,0.17-0.09c0.07-0.03,0.13-0.07,0.2-0.1c0.06-0.03,0.12-0.05,0.18-0.08
			c0.06-0.03,0.13-0.06,0.19-0.09c0.15-0.06,0.3-0.13,0.45-0.18c0.15-0.06,0.3-0.1,0.45-0.15c0.04-0.01,0.08-0.02,0.11-0.03
			c0.14-0.04,0.28-0.08,0.42-0.11c0.01,0,0.01,0,0.02,0c0.13-0.03,0.26-0.05,0.38-0.07c0.04-0.01,0.07-0.01,0.11-0.01
			c0.09-0.01,0.18-0.02,0.28-0.03c0.04,0,0.08-0.01,0.12-0.01c0.06,0,0.12-0.01,0.18-0.01c0.04,0,0.09,0,0.13,0
			c0.06,0,0.12,0,0.18,0c0.04,0,0.09,0,0.13,0c0.05,0,0.09,0.01,0.14,0.01c0.05,0,0.1,0.01,0.15,0.01c0.04,0.01,0.09,0.01,0.13,0.02
			c0.05,0.01,0.1,0.01,0.14,0.02c0.04,0.01,0.07,0.01,0.11,0.02c0.05,0.01,0.1,0.02,0.15,0.03c0.04,0.01,0.07,0.02,0.11,0.03
			c0.05,0.01,0.1,0.03,0.14,0.04c0.03,0.01,0.07,0.02,0.1,0.03c0.05,0.02,0.09,0.03,0.14,0.05c0.03,0.01,0.07,0.03,0.1,0.04
			c0.05,0.02,0.09,0.04,0.14,0.06c0.03,0.01,0.06,0.03,0.09,0.04c0.05,0.02,0.09,0.05,0.13,0.07c0.03,0.02,0.06,0.03,0.09,0.05
			c0.07,0.04,0.13,0.08,0.2,0.12l-2.72-1.81c-0.06-0.04-0.11-0.07-0.17-0.11c-0.01-0.01-0.02-0.01-0.03-0.01
			c-0.03-0.02-0.06-0.03-0.09-0.05c-0.04-0.02-0.09-0.05-0.13-0.07c-0.03-0.02-0.06-0.03-0.09-0.04c-0.03-0.01-0.05-0.03-0.08-0.04
			c-0.02-0.01-0.04-0.01-0.06-0.02c-0.03-0.01-0.07-0.03-0.1-0.04c-0.05-0.02-0.09-0.03-0.14-0.05c-0.03-0.01-0.07-0.02-0.1-0.03
			c-0.02-0.01-0.04-0.01-0.05-0.02c-0.03-0.01-0.06-0.02-0.09-0.02c-0.04-0.01-0.07-0.02-0.11-0.03c-0.05-0.01-0.1-0.02-0.15-0.03
			c-0.04-0.01-0.07-0.02-0.11-0.02c-0.01,0-0.02,0-0.03-0.01c-0.04-0.01-0.07-0.01-0.11-0.02c-0.04-0.01-0.09-0.01-0.13-0.02
			c-0.05-0.01-0.1-0.01-0.15-0.01c-0.05,0-0.09-0.01-0.14-0.01c-0.01,0-0.02,0-0.03,0c-0.03,0-0.07,0-0.1,0c-0.06,0-0.12,0-0.18,0
			c-0.04,0-0.09,0-0.13,0c-0.06,0-0.12,0-0.18,0.01c-0.02,0-0.03,0-0.05,0c-0.02,0-0.05,0.01-0.07,0.01
			c-0.09,0.01-0.18,0.02-0.28,0.03c-0.04,0-0.07,0.01-0.11,0.01c-0.13,0.02-0.25,0.04-0.38,0.07c0,0,0,0,0,0c0,0-0.01,0-0.01,0
			c-0.14,0.03-0.28,0.07-0.42,0.11c-0.04,0.01-0.07,0.02-0.11,0.03c-0.15,0.04-0.3,0.09-0.45,0.15c-0.15,0.06-0.3,0.12-0.45,0.18
			c-0.02,0.01-0.03,0.01-0.05,0.02c-0.05,0.02-0.1,0.04-0.14,0.07c-0.06,0.03-0.12,0.05-0.18,0.08c-0.07,0.03-0.13,0.07-0.2,0.1
			c-0.06,0.03-0.12,0.06-0.17,0.09c-0.07,0.04-0.13,0.07-0.2,0.11c-0.06,0.03-0.11,0.06-0.17,0.1c-0.07,0.04-0.13,0.08-0.2,0.12
			c-0.06,0.03-0.11,0.07-0.17,0.1c-0.01,0.01-0.02,0.01-0.03,0.02c-0.05,0.03-0.1,0.07-0.15,0.1c-0.07,0.04-0.13,0.09-0.2,0.13
			c-0.06,0.04-0.12,0.08-0.17,0.12c-0.06,0.05-0.13,0.09-0.19,0.14c-0.06,0.04-0.11,0.09-0.17,0.13c-0.06,0.05-0.13,0.1-0.19,0.15
			c-0.06,0.05-0.11,0.09-0.17,0.14c-0.06,0.05-0.12,0.1-0.18,0.16c-0.01,0.01-0.03,0.02-0.04,0.04c-0.03,0.03-0.06,0.06-0.09,0.08
			c-0.09,0.08-0.17,0.15-0.26,0.23c-0.05,0.04-0.09,0.09-0.14,0.13c-0.08,0.08-0.16,0.16-0.24,0.24c-0.03,0.03-0.06,0.05-0.08,0.08
			c-0.01,0.01-0.02,0.02-0.03,0.03c-0.19,0.2-0.38,0.4-0.56,0.61c-0.01,0.02-0.03,0.03-0.04,0.05c-0.01,0.01-0.02,0.03-0.03,0.04
			c-0.16,0.19-0.32,0.38-0.47,0.57c-0.01,0.02-0.03,0.03-0.04,0.05c-0.02,0.02-0.03,0.04-0.05,0.06c-0.14,0.19-0.28,0.37-0.42,0.57
			c0,0.01-0.01,0.01-0.01,0.02c-0.01,0.02-0.02,0.03-0.03,0.05c-0.12,0.17-0.24,0.35-0.35,0.53c-0.01,0.02-0.03,0.05-0.05,0.07
			c-0.01,0.01-0.02,0.03-0.02,0.04c-0.12,0.19-0.23,0.38-0.34,0.57c-0.01,0.02-0.02,0.03-0.03,0.05c-0.01,0.02-0.03,0.05-0.04,0.07
			c-0.1,0.18-0.2,0.37-0.3,0.56c-0.01,0.01-0.01,0.03-0.02,0.04c0,0,0,0.01-0.01,0.01c-0.1,0.21-0.2,0.42-0.3,0.63
			c-0.01,0.02-0.02,0.05-0.03,0.07c-0.02,0.03-0.03,0.07-0.04,0.1c-0.02,0.06-0.05,0.11-0.07,0.17c-0.03,0.08-0.07,0.16-0.1,0.25
			c-0.02,0.06-0.04,0.11-0.07,0.17c-0.01,0.03-0.02,0.05-0.03,0.08c-0.02,0.05-0.04,0.1-0.05,0.15c-0.03,0.07-0.05,0.14-0.08,0.21
			c-0.03,0.08-0.05,0.15-0.08,0.23c-0.02,0.07-0.05,0.14-0.07,0.21c-0.01,0.02-0.01,0.04-0.02,0.06c-0.01,0.04-0.02,0.07-0.03,0.11
			c-0.03,0.11-0.07,0.23-0.1,0.34c-0.02,0.06-0.03,0.12-0.05,0.18c-0.03,0.11-0.05,0.23-0.08,0.34c-0.01,0.04-0.02,0.08-0.03,0.11
			c0,0.02-0.01,0.03-0.01,0.05c-0.02,0.11-0.04,0.21-0.06,0.32c-0.01,0.05-0.02,0.1-0.03,0.16c-0.02,0.16-0.05,0.31-0.07,0.47
			c-0.3,2.62,0.47,4.58,1.92,5.55l2.72,1.81c-1.45-0.97-2.22-2.93-1.92-5.55c0.02-0.16,0.04-0.31,0.07-0.47
			C200.53,151.03,200.54,150.98,200.55,150.93z"/>
		<path class="st9" d="M207.65,123.75c0.37-0.14,0.75-0.19,1.09-0.13c1.28,0.21,1.67,1.82,0.88,3.6l-18.7,41.69
			c-0.58,1.3-1.65,2.33-2.68,2.71c-0.37,0.14-0.74,0.18-1.09,0.13c-1.28-0.21-1.67-1.82-0.88-3.6l18.7-41.69
			C205.56,125.15,206.62,124.12,207.65,123.75z"/>
		<path class="st8" d="M208.09,123.63c0.06-0.01,0.11-0.02,0.17-0.02c0.05-0.01,0.1-0.01,0.15-0.01c0.03,0,0.07,0,0.1,0
			c0.08,0,0.15,0.01,0.23,0.02c0.02,0,0.04,0.01,0.05,0.01c0.04,0.01,0.09,0.02,0.13,0.03c0.02,0.01,0.04,0.01,0.06,0.02
			c0.03,0.01,0.06,0.02,0.09,0.03c0.02,0.01,0.04,0.02,0.06,0.03c0.03,0.01,0.06,0.03,0.08,0.04c0.03,0.02,0.06,0.03,0.09,0.05
			l-2.72-1.81c-0.02-0.01-0.04-0.03-0.06-0.04c-0.01-0.01-0.02-0.01-0.03-0.02c-0.03-0.02-0.06-0.03-0.08-0.04
			c-0.01-0.01-0.02-0.01-0.04-0.02c-0.01,0-0.02-0.01-0.02-0.01c-0.03-0.01-0.06-0.02-0.1-0.03c-0.01-0.01-0.03-0.01-0.04-0.02
			c-0.01,0-0.01,0-0.02,0c-0.04-0.01-0.08-0.02-0.13-0.03c-0.01,0-0.02-0.01-0.04-0.01c-0.01,0-0.01,0-0.02,0
			c-0.06-0.01-0.13-0.02-0.19-0.02c-0.01,0-0.03,0-0.04,0c-0.03,0-0.07,0-0.1,0c-0.03,0-0.06,0-0.1,0c-0.02,0-0.03,0.01-0.05,0.01
			c-0.06,0.01-0.11,0.01-0.17,0.02c-0.03,0-0.05,0.01-0.08,0.01c-0.02,0-0.04,0.01-0.05,0.01c-0.02,0-0.04,0.01-0.06,0.01
			c-0.08,0.02-0.17,0.05-0.25,0.08c-0.06,0.02-0.11,0.04-0.17,0.07c0,0-0.01,0-0.01,0.01c-0.08,0.04-0.16,0.07-0.24,0.12
			c-0.02,0.01-0.04,0.02-0.06,0.03c-0.06,0.04-0.13,0.07-0.19,0.11c-0.01,0.01-0.03,0.01-0.04,0.02c-0.01,0-0.01,0.01-0.02,0.02
			c-0.08,0.05-0.16,0.11-0.24,0.17c-0.01,0.01-0.03,0.02-0.04,0.03c-0.07,0.05-0.13,0.11-0.2,0.16c-0.01,0.01-0.02,0.02-0.03,0.03
			c-0.01,0.01-0.02,0.02-0.02,0.02c-0.09,0.08-0.17,0.16-0.26,0.24c0,0-0.01,0.01-0.01,0.01c-0.01,0.01-0.02,0.03-0.04,0.04
			c-0.05,0.06-0.11,0.11-0.16,0.17c-0.01,0.01-0.02,0.02-0.03,0.04c-0.01,0.01-0.02,0.03-0.03,0.04c-0.04,0.05-0.08,0.09-0.12,0.14
			c-0.01,0.02-0.03,0.04-0.04,0.05c-0.01,0.01-0.01,0.02-0.02,0.03c-0.03,0.05-0.07,0.09-0.1,0.14c-0.02,0.02-0.03,0.04-0.05,0.07
			c0,0.01-0.01,0.01-0.01,0.02c-0.03,0.04-0.06,0.09-0.09,0.14c-0.02,0.03-0.04,0.05-0.05,0.08c0,0,0,0.01-0.01,0.01
			c-0.03,0.05-0.06,0.09-0.09,0.14c-0.02,0.03-0.03,0.05-0.05,0.08c0,0,0,0,0,0.01c-0.04,0.06-0.07,0.13-0.1,0.19
			c-0.01,0.02-0.02,0.03-0.02,0.05c0,0,0,0,0,0c-0.04,0.08-0.08,0.16-0.12,0.24l-18.7,41.69c0,0.01,0,0.01-0.01,0.02
			c-0.02,0.03-0.03,0.07-0.04,0.1c-0.02,0.06-0.05,0.11-0.07,0.17c0,0,0,0.01-0.01,0.01c-0.01,0.02-0.01,0.04-0.02,0.06
			c-0.03,0.07-0.05,0.15-0.08,0.22c0,0.01-0.01,0.02-0.01,0.03c-0.01,0.02-0.01,0.04-0.01,0.05c-0.03,0.09-0.05,0.19-0.07,0.28
			c0,0.02-0.01,0.03-0.01,0.05c0,0.01,0,0.03-0.01,0.04c0,0.02-0.01,0.05-0.01,0.07c-0.01,0.06-0.02,0.11-0.03,0.17
			c0,0.02-0.01,0.05-0.01,0.07c-0.01,0.07-0.01,0.14-0.02,0.2c0,0.01,0,0.01,0,0.02c0,0.07,0,0.14,0,0.21c0,0.02,0,0.04,0,0.06
			c0,0.05,0,0.1,0.01,0.15c0,0.02,0,0.04,0.01,0.07c0.01,0.05,0.01,0.1,0.02,0.16c0,0.01,0,0.03,0.01,0.04
			c0.01,0.06,0.03,0.12,0.04,0.18c0,0.02,0.01,0.03,0.01,0.04c0.01,0.05,0.03,0.09,0.04,0.13c0.01,0.02,0.01,0.04,0.02,0.05
			c0.02,0.04,0.04,0.08,0.05,0.12c0.01,0.01,0.01,0.03,0.02,0.04c0.03,0.05,0.06,0.1,0.09,0.15c0.01,0.01,0.01,0.02,0.02,0.02
			c0.03,0.04,0.05,0.07,0.08,0.11c0.01,0.01,0.02,0.03,0.04,0.04c0.03,0.03,0.05,0.06,0.08,0.08c0.01,0.01,0.02,0.02,0.04,0.03
			c0.04,0.04,0.08,0.07,0.13,0.1l2.72,1.81c-0.05-0.03-0.09-0.06-0.13-0.1c-0.01-0.01-0.02-0.02-0.04-0.03
			c-0.03-0.03-0.06-0.05-0.08-0.08c-0.01-0.01-0.02-0.03-0.04-0.04c-0.03-0.03-0.06-0.07-0.08-0.11c-0.01-0.01-0.01-0.02-0.02-0.02
			c-0.03-0.05-0.06-0.1-0.09-0.15c-0.01-0.01-0.01-0.03-0.02-0.04c-0.02-0.04-0.04-0.08-0.05-0.12c-0.01-0.02-0.01-0.04-0.02-0.05
			c-0.02-0.04-0.03-0.09-0.04-0.13c0-0.01-0.01-0.03-0.01-0.04c-0.02-0.06-0.03-0.12-0.04-0.18c0-0.01,0-0.03-0.01-0.04
			c-0.01-0.05-0.02-0.1-0.02-0.16c0-0.02,0-0.04-0.01-0.07c0-0.05-0.01-0.1-0.01-0.15c0-0.02,0-0.04,0-0.06c0-0.07,0-0.14,0-0.21
			c0-0.01,0-0.01,0-0.02c0-0.07,0.01-0.13,0.02-0.2c0-0.02,0.01-0.05,0.01-0.07c0.01-0.05,0.02-0.11,0.03-0.17
			c0-0.02,0.01-0.05,0.01-0.07c0.01-0.03,0.01-0.06,0.02-0.09c0.02-0.09,0.04-0.19,0.07-0.28c0.01-0.03,0.02-0.06,0.02-0.09
			c0.02-0.07,0.05-0.15,0.08-0.22c0.01-0.03,0.02-0.05,0.03-0.08c0.02-0.06,0.05-0.11,0.07-0.17c0.02-0.04,0.03-0.08,0.05-0.12
			l18.7-41.69c0.04-0.08,0.08-0.16,0.12-0.24c0.01-0.02,0.02-0.03,0.03-0.05c0.03-0.06,0.07-0.13,0.1-0.19
			c0.02-0.03,0.04-0.06,0.05-0.09c0.03-0.05,0.06-0.09,0.08-0.14c0.02-0.03,0.04-0.06,0.06-0.09c0.03-0.05,0.06-0.09,0.09-0.14
			c0.02-0.03,0.04-0.06,0.06-0.08c0.03-0.05,0.07-0.09,0.1-0.14c0.02-0.03,0.04-0.05,0.06-0.08c0.04-0.05,0.08-0.1,0.12-0.14
			c0.02-0.03,0.04-0.05,0.07-0.07c0.05-0.06,0.1-0.12,0.16-0.17c0.02-0.02,0.03-0.04,0.05-0.05c0.08-0.08,0.17-0.17,0.26-0.24
			c0.02-0.02,0.04-0.03,0.06-0.05c0.07-0.06,0.13-0.11,0.2-0.16c0.01-0.01,0.03-0.02,0.04-0.03c0.08-0.06,0.16-0.11,0.24-0.17
			c0.02-0.01,0.04-0.03,0.06-0.04c0.06-0.04,0.13-0.08,0.19-0.11c0.02-0.01,0.04-0.02,0.06-0.03c0.08-0.04,0.16-0.08,0.24-0.12
			c0.06-0.03,0.12-0.05,0.18-0.07c0.08-0.03,0.17-0.05,0.25-0.08c0.02-0.01,0.04-0.01,0.06-0.01
			C208,123.65,208.04,123.64,208.09,123.63z"/>
		<path class="st8" d="M192.76,146.88c0.01-0.05,0.02-0.1,0.03-0.15c0.01-0.05,0.02-0.09,0.03-0.14c0.01-0.05,0.02-0.1,0.03-0.15
			c0.01-0.04,0.02-0.08,0.02-0.12c0.02-0.14,0.04-0.27,0.06-0.41c0.01-0.12,0.02-0.24,0.03-0.36c0.02-0.31,0.02-0.61-0.01-0.89
			c0-0.01,0-0.01,0-0.01c-0.02-0.19-0.05-0.37-0.08-0.54c0-0.02-0.01-0.03-0.01-0.05c-0.06-0.25-0.13-0.48-0.22-0.69
			c-0.05-0.12-0.11-0.23-0.18-0.34c-0.02-0.03-0.03-0.06-0.05-0.08c-0.01-0.02-0.02-0.03-0.03-0.05c-0.03-0.05-0.06-0.1-0.1-0.14
			c-0.02-0.03-0.05-0.06-0.08-0.09c-0.02-0.03-0.04-0.06-0.07-0.08c-0.08-0.09-0.17-0.17-0.26-0.25c-0.02-0.02-0.05-0.04-0.07-0.06
			c-0.02-0.01-0.04-0.03-0.05-0.04c-0.04-0.03-0.08-0.06-0.13-0.09l-2.72-1.81h0c0.04,0.03,0.09,0.06,0.13,0.09
			c0.02,0.01,0.04,0.03,0.05,0.04c0.02,0.02,0.05,0.04,0.07,0.06c0.09,0.08,0.18,0.16,0.26,0.25c0.02,0.03,0.05,0.06,0.07,0.08
			c0.03,0.03,0.05,0.06,0.08,0.09c0.03,0.05,0.07,0.1,0.1,0.14c0.01,0.02,0.02,0.03,0.03,0.05c0.02,0.03,0.03,0.06,0.05,0.08
			c0.1,0.17,0.19,0.35,0.26,0.55c0.05,0.14,0.1,0.29,0.13,0.44c0.01,0.03,0.02,0.06,0.02,0.1c0.04,0.17,0.06,0.35,0.08,0.54
			c0,0.01,0,0.01,0,0.01c0.03,0.28,0.03,0.58,0.01,0.89c-0.01,0.12-0.02,0.24-0.03,0.36c-0.02,0.14-0.04,0.27-0.06,0.41
			c-0.01,0.04-0.01,0.08-0.02,0.12c-0.02,0.1-0.04,0.19-0.06,0.29c-0.01,0.05-0.02,0.1-0.03,0.15c-0.02,0.1-0.05,0.2-0.08,0.3
			c-0.01,0.04-0.02,0.08-0.03,0.12c-0.01,0.04-0.03,0.09-0.04,0.13c-0.04,0.14-0.09,0.28-0.14,0.42c-0.02,0.06-0.05,0.12-0.07,0.18
			c-0.04,0.1-0.08,0.2-0.13,0.31c-0.03,0.06-0.05,0.13-0.08,0.19c-0.04,0.09-0.09,0.18-0.13,0.27c-0.03,0.06-0.06,0.13-0.09,0.19
			c-0.04,0.09-0.09,0.17-0.14,0.26c-0.03,0.06-0.07,0.13-0.1,0.19c-0.08,0.13-0.16,0.27-0.24,0.4c-0.01,0.01-0.01,0.02-0.02,0.02
			c-0.08,0.13-0.16,0.25-0.25,0.37c-0.03,0.04-0.06,0.08-0.08,0.12c-0.07,0.1-0.14,0.2-0.22,0.3c-0.03,0.04-0.06,0.08-0.09,0.11
			c-0.11,0.14-0.21,0.27-0.33,0.4c-0.01,0.01-0.02,0.03-0.04,0.04c-0.12,0.13-0.24,0.26-0.36,0.39c-0.03,0.03-0.06,0.07-0.1,0.1
			c-0.04,0.04-0.09,0.09-0.13,0.13c-0.05,0.05-0.1,0.1-0.15,0.14c-0.04,0.04-0.09,0.08-0.14,0.12c-0.04,0.04-0.09,0.08-0.13,0.12
			c-0.14,0.12-0.28,0.24-0.43,0.35c-0.03,0.02-0.05,0.04-0.08,0.06c-0.14,0.1-0.28,0.2-0.42,0.29c-0.02,0.01-0.04,0.03-0.07,0.04
			c-0.02,0.02-0.05,0.03-0.07,0.05c-0.07,0.05-0.14,0.09-0.22,0.13c-0.03,0.02-0.06,0.04-0.1,0.05c-0.07,0.04-0.14,0.08-0.21,0.11
			c-0.03,0.01-0.06,0.03-0.08,0.04c-0.1,0.05-0.2,0.09-0.3,0.14c-0.11,0.05-0.22,0.09-0.34,0.13c-0.1,0.04-0.21,0.07-0.31,0.1
			c-0.03,0.01-0.05,0.01-0.08,0.02c-0.1,0.03-0.19,0.05-0.29,0.07c0,0-0.01,0-0.01,0c-0.09,0.02-0.18,0.03-0.26,0.05
			c-0.03,0-0.05,0.01-0.08,0.01c-0.06,0.01-0.13,0.02-0.19,0.02c-0.03,0-0.06,0.01-0.08,0.01c-0.04,0-0.08,0-0.12,0.01
			c-0.03,0-0.06,0-0.09,0c-0.04,0-0.08,0-0.12,0c-0.03,0-0.06,0-0.09,0c-0.03,0-0.06,0-0.09-0.01c-0.03,0-0.07-0.01-0.1-0.01
			c-0.03,0-0.06-0.01-0.09-0.01c-0.03,0-0.06-0.01-0.09-0.01c-0.1-0.02-0.2-0.04-0.3-0.07c-0.02,0-0.03-0.01-0.05-0.01
			c-0.09-0.03-0.18-0.06-0.27-0.1c-0.02-0.01-0.03-0.01-0.05-0.02c-0.09-0.04-0.17-0.08-0.25-0.13c-0.04-0.03-0.09-0.05-0.13-0.08h0
			l2.72,1.81c0.04,0.03,0.08,0.05,0.12,0.07c0,0,0.01,0,0.01,0.01c0.08,0.05,0.16,0.09,0.25,0.13c0.01,0,0.02,0.01,0.02,0.01
			c0.01,0,0.01,0.01,0.02,0.01c0.09,0.04,0.18,0.07,0.27,0.1c0.01,0,0.01,0.01,0.02,0.01c0.01,0,0.02,0,0.03,0.01
			c0.1,0.03,0.2,0.05,0.3,0.07c0,0,0.01,0,0.01,0c0.02,0,0.05,0.01,0.08,0.01c0.03,0,0.06,0.01,0.09,0.01c0.03,0,0.07,0.01,0.1,0.01
			c0.03,0,0.06,0.01,0.09,0.01c0.01,0,0.01,0,0.02,0c0.02,0,0.04,0,0.07,0c0.04,0,0.08,0,0.12,0c0.03,0,0.06,0,0.09,0
			c0.04,0,0.08,0,0.12-0.01c0.01,0,0.02,0,0.04,0c0.02,0,0.03,0,0.05-0.01c0.06-0.01,0.13-0.01,0.19-0.02
			c0.02,0,0.05-0.01,0.08-0.01c0.09-0.01,0.17-0.03,0.26-0.05l0,0c0,0,0.01,0,0.01,0c0.09-0.02,0.19-0.05,0.29-0.07
			c0.03-0.01,0.05-0.01,0.08-0.02c0.1-0.03,0.2-0.06,0.31-0.1c0.11-0.04,0.22-0.09,0.34-0.13c0,0,0,0,0.01,0
			c0.1-0.04,0.19-0.09,0.29-0.14c0.03-0.01,0.06-0.03,0.09-0.04c0.07-0.04,0.14-0.07,0.21-0.11c0.03-0.02,0.06-0.04,0.1-0.05
			c0.07-0.04,0.15-0.09,0.22-0.13c0.02-0.02,0.05-0.03,0.07-0.05c0.01-0.01,0.02-0.01,0.02-0.02c0.01-0.01,0.03-0.02,0.04-0.03
			c0.14-0.09,0.28-0.19,0.42-0.29c0.03-0.02,0.05-0.04,0.08-0.06c0.14-0.11,0.29-0.23,0.43-0.35c0.01-0.01,0.03-0.02,0.04-0.03
			c0.03-0.03,0.06-0.06,0.09-0.08c0.05-0.04,0.09-0.08,0.14-0.12c0.05-0.05,0.1-0.09,0.15-0.14c0.04-0.04,0.09-0.09,0.13-0.13
			c0.02-0.02,0.03-0.03,0.05-0.05c0.02-0.02,0.03-0.04,0.05-0.05c0.12-0.13,0.24-0.25,0.36-0.39c0.01-0.01,0.02-0.02,0.03-0.03
			c0,0,0.01-0.01,0.01-0.01c0.11-0.13,0.22-0.26,0.33-0.4c0.01-0.01,0.02-0.03,0.03-0.04c0.02-0.02,0.03-0.05,0.05-0.07
			c0.07-0.1,0.15-0.2,0.22-0.3c0.02-0.02,0.04-0.05,0.05-0.07c0.01-0.01,0.02-0.03,0.03-0.04c0.09-0.12,0.17-0.25,0.25-0.38
			c0-0.01,0.01-0.01,0.01-0.02c0,0,0,0,0,0c0.07-0.12,0.15-0.23,0.21-0.35c0.01-0.02,0.02-0.03,0.03-0.05
			c0.01-0.01,0.02-0.03,0.03-0.04c0.03-0.05,0.05-0.1,0.08-0.15c0.05-0.09,0.09-0.17,0.14-0.26c0.01-0.02,0.02-0.04,0.03-0.06
			c0.02-0.04,0.04-0.09,0.06-0.13c0.04-0.09,0.09-0.18,0.13-0.27c0.01-0.03,0.03-0.05,0.04-0.08c0.02-0.04,0.03-0.08,0.05-0.11
			c0.04-0.1,0.09-0.2,0.13-0.31c0.01-0.03,0.03-0.07,0.04-0.1c0.01-0.03,0.02-0.05,0.03-0.08c0.05-0.14,0.1-0.28,0.14-0.42
			c0.01-0.03,0.02-0.06,0.03-0.09c0-0.01,0.01-0.02,0.01-0.04c0.01-0.04,0.02-0.08,0.03-0.12
			C192.71,147.08,192.73,146.98,192.76,146.88z"/>
		<path class="st9" d="M187.15,153.6c2.82-1.03,5.41-4.47,5.78-7.69c0.37-3.22-1.62-4.99-4.45-3.96c-2.82,1.03-5.41,4.47-5.78,7.69
			C182.34,152.85,184.33,154.62,187.15,153.6 M188.8,139.26c4.13-1.5,7.03,1.09,6.49,5.79c-0.54,4.7-4.32,9.73-8.45,11.24
			c-4.13,1.5-7.03-1.09-6.49-5.79C180.89,145.79,184.67,140.76,188.8,139.26z"/>
		<path class="st8" d="M180.44,149.87c0.02-0.11,0.04-0.21,0.06-0.32c0.01-0.06,0.02-0.11,0.04-0.17c0.02-0.11,0.05-0.23,0.08-0.34
			c0.01-0.06,0.03-0.12,0.05-0.18c0.03-0.11,0.06-0.23,0.09-0.34c0.02-0.06,0.03-0.12,0.05-0.18c0.02-0.07,0.04-0.14,0.07-0.21
			c0.02-0.08,0.05-0.15,0.08-0.23c0.02-0.07,0.05-0.14,0.07-0.21c0.03-0.08,0.06-0.15,0.09-0.23c0.02-0.06,0.04-0.11,0.07-0.17
			c0.03-0.08,0.07-0.17,0.1-0.25c0.02-0.06,0.05-0.11,0.07-0.17c0.03-0.06,0.05-0.12,0.08-0.17c0.09-0.21,0.19-0.42,0.3-0.63
			c0.01-0.02,0.02-0.04,0.03-0.05c0.1-0.19,0.2-0.37,0.3-0.56c0.02-0.04,0.04-0.08,0.07-0.12c0.11-0.19,0.22-0.38,0.34-0.57
			c0.02-0.04,0.05-0.07,0.07-0.11c0.11-0.18,0.23-0.35,0.35-0.53c0.01-0.02,0.03-0.04,0.04-0.06c0.14-0.19,0.28-0.38,0.42-0.57
			c0.03-0.04,0.06-0.07,0.08-0.11c0.15-0.19,0.31-0.38,0.47-0.57c0.03-0.03,0.05-0.06,0.08-0.09c0.18-0.21,0.37-0.41,0.56-0.61
			c0.04-0.04,0.08-0.08,0.12-0.12c0.08-0.08,0.16-0.16,0.24-0.24c0.05-0.04,0.09-0.09,0.14-0.13c0.08-0.08,0.17-0.16,0.26-0.23
			c0.04-0.04,0.09-0.08,0.13-0.12c0.06-0.05,0.12-0.1,0.18-0.16c0.06-0.05,0.11-0.09,0.17-0.14c0.06-0.05,0.13-0.1,0.19-0.15
			c0.06-0.04,0.11-0.09,0.17-0.13c0.06-0.05,0.13-0.09,0.19-0.14c0.06-0.04,0.11-0.08,0.17-0.12c0.07-0.05,0.13-0.09,0.2-0.13
			c0.06-0.04,0.12-0.08,0.18-0.12c0.06-0.04,0.11-0.07,0.17-0.1c0.07-0.04,0.13-0.08,0.2-0.12c0.06-0.03,0.11-0.06,0.17-0.1
			c0.07-0.04,0.13-0.08,0.2-0.11c0.06-0.03,0.12-0.06,0.17-0.09c0.07-0.03,0.13-0.07,0.2-0.1c0.06-0.03,0.12-0.05,0.18-0.08
			c0.06-0.03,0.13-0.06,0.19-0.08c0.15-0.06,0.3-0.13,0.45-0.18c0.15-0.06,0.3-0.1,0.45-0.15c0.04-0.01,0.08-0.02,0.11-0.03
			c0.14-0.04,0.28-0.08,0.42-0.11c0.01,0,0.01,0,0.02,0c0.13-0.03,0.26-0.05,0.38-0.07c0.04-0.01,0.07-0.01,0.11-0.02
			c0.09-0.01,0.18-0.02,0.28-0.03c0.04,0,0.08-0.01,0.12-0.01c0.06,0,0.12-0.01,0.18-0.01c0.04,0,0.09,0,0.13,0
			c0.06,0,0.12,0,0.18,0c0.04,0,0.08,0,0.13,0c0.05,0,0.09,0.01,0.14,0.01c0.05,0,0.1,0.01,0.15,0.01c0.04,0.01,0.09,0.01,0.13,0.02
			c0.05,0.01,0.1,0.01,0.14,0.02c0.04,0.01,0.07,0.01,0.11,0.02c0.05,0.01,0.1,0.02,0.15,0.03c0.04,0.01,0.07,0.02,0.11,0.03
			c0.05,0.01,0.1,0.03,0.14,0.04c0.03,0.01,0.07,0.02,0.1,0.03c0.05,0.02,0.09,0.03,0.14,0.05c0.03,0.01,0.07,0.03,0.1,0.04
			c0.05,0.02,0.09,0.04,0.14,0.06c0.03,0.01,0.06,0.03,0.09,0.04c0.05,0.02,0.09,0.05,0.13,0.07c0.03,0.02,0.06,0.03,0.09,0.05
			c0.07,0.04,0.13,0.08,0.2,0.12l-2.72-1.81c-0.06-0.04-0.11-0.07-0.17-0.11c-0.01-0.01-0.02-0.01-0.03-0.01
			c-0.03-0.02-0.06-0.03-0.09-0.05c-0.04-0.02-0.09-0.05-0.13-0.07c-0.03-0.02-0.06-0.03-0.09-0.04c-0.03-0.01-0.05-0.03-0.08-0.04
			c-0.02-0.01-0.04-0.01-0.06-0.02c-0.03-0.01-0.07-0.03-0.1-0.04c-0.05-0.02-0.09-0.03-0.14-0.05c-0.03-0.01-0.07-0.02-0.1-0.03
			c-0.02-0.01-0.03-0.01-0.05-0.02c-0.03-0.01-0.06-0.02-0.09-0.02c-0.04-0.01-0.07-0.02-0.11-0.03c-0.05-0.01-0.1-0.02-0.15-0.03
			c-0.04-0.01-0.07-0.02-0.11-0.02c-0.01,0-0.02,0-0.03-0.01c-0.04-0.01-0.07-0.01-0.11-0.02c-0.04-0.01-0.09-0.01-0.13-0.02
			c-0.05-0.01-0.1-0.01-0.15-0.01c-0.05,0-0.09-0.01-0.14-0.01c-0.01,0-0.02,0-0.03,0c-0.03,0-0.07,0-0.1,0c-0.06,0-0.12,0-0.18,0
			c-0.04,0-0.09,0-0.13,0c-0.06,0-0.12,0-0.18,0.01c-0.02,0-0.03,0-0.05,0c-0.02,0-0.05,0.01-0.07,0.01
			c-0.09,0.01-0.18,0.02-0.28,0.03c-0.04,0-0.07,0.01-0.11,0.02c-0.13,0.02-0.25,0.04-0.38,0.07c0,0,0,0,0,0c0,0-0.01,0-0.01,0
			c-0.14,0.03-0.28,0.07-0.42,0.11c-0.04,0.01-0.07,0.02-0.11,0.03c-0.15,0.04-0.3,0.09-0.45,0.15c-0.15,0.06-0.3,0.12-0.45,0.18
			c-0.02,0.01-0.03,0.01-0.05,0.02c-0.05,0.02-0.09,0.04-0.14,0.07c-0.06,0.03-0.12,0.05-0.18,0.08c-0.07,0.03-0.13,0.07-0.2,0.1
			c-0.06,0.03-0.12,0.06-0.17,0.09c-0.07,0.04-0.13,0.07-0.2,0.11c-0.06,0.03-0.11,0.06-0.17,0.1c-0.07,0.04-0.13,0.08-0.2,0.12
			c-0.06,0.03-0.11,0.07-0.17,0.1c-0.01,0.01-0.02,0.01-0.03,0.02c-0.05,0.03-0.1,0.07-0.14,0.1c-0.07,0.04-0.13,0.09-0.2,0.13
			c-0.06,0.04-0.12,0.08-0.17,0.12c-0.06,0.05-0.13,0.09-0.19,0.14c-0.06,0.04-0.11,0.09-0.17,0.13c-0.06,0.05-0.13,0.1-0.19,0.15
			c-0.06,0.05-0.11,0.09-0.17,0.14c-0.06,0.05-0.12,0.1-0.18,0.16c-0.01,0.01-0.03,0.02-0.04,0.04c-0.03,0.03-0.06,0.06-0.09,0.08
			c-0.09,0.08-0.17,0.15-0.26,0.23c-0.05,0.04-0.09,0.09-0.14,0.13c-0.08,0.08-0.16,0.16-0.24,0.24c-0.03,0.03-0.06,0.05-0.08,0.08
			c-0.01,0.01-0.02,0.02-0.03,0.03c-0.19,0.2-0.38,0.4-0.56,0.61c-0.01,0.02-0.03,0.03-0.04,0.05c-0.01,0.01-0.02,0.03-0.03,0.04
			c-0.16,0.19-0.32,0.38-0.47,0.57c-0.01,0.02-0.03,0.03-0.04,0.05c-0.02,0.02-0.03,0.04-0.05,0.06c-0.14,0.19-0.28,0.37-0.42,0.57
			c0,0.01-0.01,0.01-0.01,0.02c-0.01,0.02-0.02,0.03-0.03,0.05c-0.12,0.17-0.24,0.35-0.35,0.53c-0.01,0.02-0.03,0.05-0.05,0.07
			c-0.01,0.01-0.02,0.03-0.02,0.04c-0.12,0.19-0.23,0.38-0.34,0.57c-0.01,0.02-0.02,0.03-0.03,0.05c-0.01,0.02-0.03,0.05-0.04,0.07
			c-0.1,0.18-0.2,0.37-0.3,0.56c-0.01,0.01-0.01,0.03-0.02,0.04c0,0,0,0.01-0.01,0.01c-0.1,0.21-0.2,0.42-0.3,0.63
			c-0.01,0.02-0.02,0.05-0.03,0.07c-0.02,0.03-0.03,0.07-0.04,0.1c-0.02,0.06-0.05,0.11-0.07,0.17c-0.03,0.08-0.07,0.16-0.1,0.25
			c-0.02,0.06-0.04,0.11-0.07,0.17c-0.01,0.03-0.02,0.05-0.03,0.08c-0.02,0.05-0.04,0.1-0.05,0.15c-0.03,0.07-0.05,0.14-0.07,0.21
			c-0.03,0.08-0.05,0.15-0.08,0.23c-0.02,0.07-0.05,0.14-0.07,0.21c-0.01,0.02-0.01,0.04-0.02,0.07c-0.01,0.04-0.02,0.07-0.03,0.11
			c-0.03,0.11-0.06,0.23-0.09,0.34c-0.02,0.06-0.03,0.12-0.05,0.18c-0.03,0.11-0.05,0.23-0.08,0.34c-0.01,0.04-0.02,0.08-0.03,0.12
			c0,0.02-0.01,0.03-0.01,0.05c-0.02,0.11-0.04,0.21-0.06,0.32c-0.01,0.05-0.02,0.1-0.03,0.16c-0.02,0.16-0.05,0.31-0.07,0.47
			c-0.3,2.62,0.47,4.58,1.92,5.55l2.72,1.81c-1.45-0.97-2.22-2.93-1.92-5.55c0.02-0.16,0.04-0.31,0.07-0.47
			C180.43,149.97,180.44,149.92,180.44,149.87z"/>
		<path class="st9" d="M207.26,154.65c2.82-1.03,5.41-4.47,5.78-7.69c0.37-3.22-1.62-4.99-4.44-3.96c-2.82,1.03-5.41,4.47-5.78,7.69
			C202.45,153.91,204.44,155.68,207.26,154.65 M208.91,140.32c4.13-1.5,7.03,1.09,6.49,5.79c-0.54,4.7-4.32,9.73-8.45,11.23
			c-4.13,1.5-7.03-1.09-6.49-5.79C201,146.85,204.78,141.82,208.91,140.32z"/>
	</g>
</g>
<rect class="st4" width="842.55" height="413.62"/>
</svg>
